<?xml version="1.0" encoding="UTF-8" standalone="no"?>
<!-- Created with Inkscape (http://www.inkscape.org/) -->

<svg
   width="180.91214mm"
   height="180.93616mm"
   viewBox="0 0 180.91214 180.93616"
   version="1.1"
   id="svg7046"
   xml:space="preserve"
   xmlns:inkscape="http://www.inkscape.org/namespaces/inkscape"
   xmlns:sodipodi="http://sodipodi.sourceforge.net/DTD/sodipodi-0.dtd"
   xmlns="http://www.w3.org/2000/svg"
   xmlns:svg="http://www.w3.org/2000/svg"><sodipodi:namedview
     id="namedview7048"
     pagecolor="#505050"
     bordercolor="#eeeeee"
     borderopacity="1"
     inkscape:showpageshadow="0"
     inkscape:pageopacity="0"
     inkscape:pagecheckerboard="0"
     inkscape:deskcolor="#505050"
     inkscape:document-units="mm"
     showgrid="false" /><defs
     id="defs7043" /><g
     inkscape:label="Layer 1"
     inkscape:groupmode="layer"
     id="layer1"
     transform="translate(-9.2827341,-56.196913)"><path
       style="fill:#00be1e;fill-opacity:1;stroke:#1af862;stroke-width:0.352778;stroke-opacity:1"
       d="m 91.448527,236.56602 c -16.71706,-1.59391 -32.614969,-7.78268 -46.359233,-18.0468 -4.353281,-3.251 -13.965729,-12.86345 -17.216729,-17.21673 -24.5533537,-32.87839 -24.5533537,-76.42062 0,-109.299017 3.251,-4.353282 12.863448,-13.965729 17.216729,-17.216729 32.878394,-24.553354 76.420626,-24.553354 109.299016,0 4.35329,3.251 13.96573,12.863447 17.21673,17.216729 24.55336,32.878397 24.55336,76.420627 0,109.299017 -3.251,4.35328 -12.86344,13.96573 -17.21673,17.21673 -18.33678,13.69379 -40.86033,20.15199 -62.939783,18.0468 z m 3.351388,-52.3422 v -8.29028 h -4.762499 -4.7625 v -18.16806 -18.16805 h 14.287499 14.287505 v 18.16805 18.16806 h -4.58612 -4.58611 v 8.29028 8.29027 h 20.6375 20.6375 v -8.29027 -8.29028 h -4.93889 -4.93889 V 149.8303 123.72707 l -25.48819,-0.0905 -25.488193,-0.0905 -0.107573,-1.87922 c -0.190824,-3.33361 0.471407,-5.46325 2.192034,-7.04926 1.882384,-1.73513 3.741547,-2.18402 9.045402,-2.18402 h 3.86319 v -8.50662 -8.506625 l -8.554859,0.173482 c -9.751183,0.197742 -11.237644,0.463468 -16.315972,2.916717 -3.666691,1.771316 -6.203015,3.756746 -8.379192,6.559236 -3.107266,4.00154 -4.124152,7.65387 -4.13743,14.86034 l -0.007,3.79236 h -4.586111 -4.586111 v 7.9375 7.9375 h 4.586111 4.586111 v 18.16805 18.16806 h -4.586111 -4.586111 v 8.29028 8.29027 h 20.6375 20.637499 z m 35.140875,-69.85387 c 2.16392,-1.05871 4.15921,-3.14519 5.18407,-5.42101 1.03216,-2.29199 1.03899,-6.32214 0.0145,-8.55303 -1.02624,-2.234719 -3.07977,-4.41418 -5.21568,-5.53552 -1.52627,-0.801285 -2.22275,-0.937891 -4.78489,-0.938501 -2.45953,-7.06e-4 -3.284,0.147944 -4.58611,0.826202 -2.16264,1.126507 -4.10854,3.047411 -5.229,5.161837 -0.79944,1.508622 -0.93471,2.197842 -0.93471,4.762502 0,2.56297 0.13624,3.25812 0.93779,4.78489 0.92986,1.77119 2.99012,3.91932 4.57735,4.77258 2.99876,1.61207 6.91624,1.66673 10.03667,0.14005 z"
       id="path7869" /></g></svg>
