<?xml version="1.0" encoding="UTF-8" standalone="no"?>
<!-- Created with Inkscape (http://www.inkscape.org/) -->

<svg
   width="50.000008mm"
   height="50mm"
   viewBox="0 0 50.000008 50"
   version="1.1"
   id="svg5"
   xml:space="preserve"
   inkscape:version="1.2.2 (732a01da63, 2022-12-09)"
   sodipodi:docname="mlogo.svg"
   xmlns:inkscape="http://www.inkscape.org/namespaces/inkscape"
   xmlns:sodipodi="http://sodipodi.sourceforge.net/DTD/sodipodi-0.dtd"
   xmlns="http://www.w3.org/2000/svg"
   xmlns:svg="http://www.w3.org/2000/svg"><sodipodi:namedview
     id="namedview7"
     pagecolor="#505050"
     bordercolor="#eeeeee"
     borderopacity="1"
     inkscape:showpageshadow="0"
     inkscape:pageopacity="0"
     inkscape:pagecheckerboard="0"
     inkscape:deskcolor="#505050"
     inkscape:document-units="mm"
     showgrid="true"
     inkscape:zoom="0.71624579"
     inkscape:cx="223.387"
     inkscape:cy="561.95793"
     inkscape:window-width="1920"
     inkscape:window-height="991"
     inkscape:window-x="-9"
     inkscape:window-y="-9"
     inkscape:window-maximized="1"
     inkscape:current-layer="layer1"><inkscape:grid
       type="xygrid"
       id="grid485" /></sodipodi:namedview><defs
     id="defs2" /><g
     inkscape:label="Layer 1"
     inkscape:groupmode="layer"
     id="layer1"
     transform="matrix(0.78225391,0,0,0.85004337,-111.40705,-185.26497)"><g
       id="g171"
       transform="matrix(0.13471098,0,0,0.12149358,105.70679,185.94315)"><path
         fill="#b9baf9"
         d="m 703,265.04 -2.32,1.04 q -0.65,0.29 -0.82,0.48 -1.34,1.56 -2.47,3.27 -1.28,1.92 -2.58,3.11 -10.06,9.2 -12.37,10.5 -8.23,4.6 -15.77,10.27 -0.73,0.55 -4.42,3.29 -8.97,6.67 -19.99,18.01 -3.36,3.46 -6.96,6.66 -1.39,1.23 -4.76,4.98 -2.3,2.56 -5.2,4.45 -2.84,1.85 -4.63,3.5 -2.29,2.11 -4.55,3.69 -0.99,0.69 -1.73,1.65 -4.62,5.97 -8.12,9.12 -2.34,2.11 -4.14,2.73 a 1.29,1.2 2.2 0 0 -0.7,0.6 q -2.39,4.75 -7.91,4.35 a 2.03,1.44 56.8 0 1 -0.89,-0.35 l -2.19,-1.55 a 0.73,0.72 -44.5 0 0 -0.83,0 q -2.99,2.1 -5.46,5.6 -1.53,2.16 -4.22,4.08 -0.39,0.29 -0.6,0.75 -0.78,1.68 -2.15,2.95 -3.14,2.91 -5.47,6.49 l -16,17.25 q -1.87,1.92 -3.97,3.57 -0.34,0.27 -0.63,0.27 -0.43,0 -0.69,-0.3 7.13,-7.83 14.36,-15.54 7.17,-7.65 13.4,-14.84 18.29,-21.12 32.22,-36.43 2.32,-2.56 3.9,-4.45 2.64,-3.14 3.87,-4.47 13.83,-14.94 26.13,-31.18 4.43,-5.85 9.79,-10.76 5.74,-5.25 11.73,-8.43 17.15,-9.08 37.14,-4.36 z"
         id="path11" /><path
         fill="#01fff5"
         d="m 344.25,265.21 q -3.45,-0.03 -2.09,0.26 0.58,0.12 1,0.32 3.35,1.63 6.84,2.92 l 9.75,5.83 q 6.87,4.31 11.47,11 11.32,16.45 25.08,30.91 3.54,3.72 10.64,12.36 3.59,4.38 17.81,19.48 l 1.54,1.96 q -1.24,-0.14 -1.48,0.81 -0.39,1.58 -0.38,3.87 a 1.94,1.63 -33.7 0 1 -0.27,0.93 q -1.06,1.75 -1.6,4.95 -0.56,3.39 -3.86,7.09 a 0.57,0.38 28.9 0 1 -0.57,0.05 l -0.38,-0.16 a 0.82,0.54 -59 0 0 -0.79,0.38 q -2.51,3.66 -2.9,4.89 -1.36,4.33 -4,6 -1.08,0.69 -4.32,5.15 -0.04,0.06 -3.06,4.89 -1.5,2.4 -3.52,4.38 -2.19,2.15 -3.77,4.07 -3.25,3.95 -7.83,6.88 -0.97,0.62 -1.54,1.62 -1.1,1.93 -2.81,1.39 -0.51,-0.17 -0.95,-0.11 -3.45,0.46 -6.76,-2.33 -2.75,-2.32 -8.44,-3.47 -0.46,-0.09 -0.88,-0.42 -1.59,-1.24 -3.68,-1.32 -3.22,-2.71 -6.13,-5.75 -3.44,-3.6 -5.94,-5.9 -6.4,-5.89 -12.07,-12.49 -2.92,-3.4 -6.02,-6.64 -0.63,-0.65 -5.13,-6 -2.28,-2.69 -5.71,-5.76 -1.49,-1.33 -2.71,-0.5 l -4.29,-3.04 q -0.85,-0.31 -1,-1.25 -1.52,-2.19 -3.23,-4.24 -2.02,-2.43 -2.94,-5.42 -0.11,-0.37 -0.5,-0.83 -0.53,-0.61 -1.08,-1.97 -3.16,-7.78 -9.07,-15.32 -5.11,-6.51 -5.91,-7.73 -3.42,-5.16 -4.58,-8.64 -1.57,-4.7 0.5,-10.37 4.08,-11.19 7.25,-17 1.44,-2.66 -0.73,-4.94 7.94,-6.5 19.29,-9.75 16.36,-4.69 31.75,-1.04 z"
         id="path13" /><path
         fill="#a4a6e9"
         d="m 703,265.04 q 12.46,2.98 21.79,11.71 l -6.36,5.75 q -1.34,1.21 -2.96,0.37 -1.61,-0.85 -2.63,0.37 -0.19,0.22 -0.38,0.3 -0.84,0.34 -0.15,-0.73 1.39,-2.13 -0.5,-0.5 -2.86,2.47 -1.09,-0.4 0.2,-0.32 -0.16,-0.16 -1.26,0.59 -0.29,-0.7 0.19,-0.26 -0.14,-0.29 -0.22,-0.02 -0.36,-0.11 a 0.8,0.41 38.4 0 0 -0.7,-0.14 q -6.88,4.26 -13.26,9.24 -0.06,0.05 -1.63,1.51 -1.33,1.24 -3.43,1.99 -2.15,0.77 -5.46,2.65 -2.05,1.16 -5,3.39 -4.93,3.74 -10.18,7.03 -3.24,2.02 -6.72,5.02 -5.26,4.52 -11.83,8.47 -1.43,0.86 -2.85,2.32 -1.41,1.46 -2.77,2.32 -3.12,1.98 -5.95,4.35 -2.58,2.16 -5.87,4.39 -4.23,2.86 -7.43,6.5 -1.9,2.15 -3.82,3.59 -0.74,0.55 -1.62,1.55 -0.78,0.87 -1.75,1.46 -2.08,1.26 -2.7,1.85 -5.6,5.36 -11.11,10.8 -4.35,4.28 -10.97,8.77 -0.05,0.03 -1.68,1.38 -1.81,1.5 -4.3,0.78 -1.2,-0.36 0.05,-1.1 2.28,-1.35 0.01,-0.77 -0.23,0.06 -0.45,0.19 -1.97,1.22 -4.98,2.05 -1.29,0.36 -2.25,1.28 -1.96,1.89 -3.94,2.53 a 0.69,0.63 63.6 0 1 -0.75,-0.29 q -1.68,-2.52 -3.74,0.18 -0.38,0.5 -0.94,0.77 2.33,-3.58 5.47,-6.49 1.37,-1.27 2.15,-2.95 0.21,-0.46 0.6,-0.75 2.69,-1.92 4.22,-4.08 2.47,-3.5 5.46,-5.6 a 0.73,0.72 -44.5 0 1 0.83,0 l 2.19,1.55 a 2.03,1.44 56.8 0 0 0.89,0.35 q 5.52,0.4 7.91,-4.35 a 1.29,1.2 2.2 0 1 0.7,-0.6 q 1.8,-0.62 4.14,-2.73 3.5,-3.15 8.12,-9.12 0.74,-0.96 1.73,-1.65 2.26,-1.58 4.55,-3.69 1.79,-1.65 4.63,-3.5 2.9,-1.89 5.2,-4.45 3.37,-3.75 4.76,-4.98 3.6,-3.2 6.96,-6.66 11.02,-11.34 19.99,-18.01 3.69,-2.74 4.42,-3.29 7.54,-5.67 15.77,-10.27 2.31,-1.3 12.37,-10.5 1.3,-1.19 2.58,-3.11 1.13,-1.71 2.47,-3.27 0.17,-0.19 0.82,-0.48 z"
         id="path15" /><path
         fill="#43ccd6"
         d="m 344.25,265.21 q 9.99,2.09 18.44,9.6 9.14,8.13 15.37,16.51 4.35,5.85 4.39,5.9 9.56,12.16 20.1,23.48 15.79,16.97 33.51,37.74 13.24,15.51 29.85,33.39 21.59,23.23 42.21,47.31 0.6,0.7 0.88,1.57 -0.78,0.28 -1.31,-0.4 -1.41,-1.77 -5.9,-6.31 -0.82,-1.04 -1.59,-2.11 -0.73,-1.01 -1.71,-2 -2.43,-2.44 -7.55,-8.33 -4.49,-5.15 -18.65,-17.85 -1.63,-1.46 -1.57,-3.71 a 1.39,1.03 -71.8 0 0 -0.29,-0.88 L 463.79,392 461,389.04 q 0.34,-0.37 0.29,-0.83 -0.03,-0.32 -0.39,-0.7 -14.59,-15.28 -28.34,-31.32 -3.62,-4.23 -7.81,-7.9 -14.22,-15.1 -17.81,-19.48 -7.1,-8.64 -10.64,-12.36 -13.76,-14.46 -25.08,-30.91 -4.6,-6.69 -11.47,-11 0.37,-0.89 -0.39,-1.42 -3.75,-2.58 -7.79,-4.68 -0.92,-0.48 -1.57,0.27 -3.49,-1.29 -6.84,-2.92 -0.42,-0.2 -1,-0.32 -1.36,-0.29 2.09,-0.26 z"
         id="path17" /><path
         fill="#2c75a1"
         d="M 359.75,274.54 350,268.71 q 0.65,-0.75 1.57,-0.27 4.04,2.1 7.79,4.68 0.76,0.53 0.39,1.42 z"
         id="path19" /><path
         fill="#01dde3"
         d="m 293.21,276 q 2.17,2.28 0.73,4.94 -3.17,5.81 -7.25,17 -2.07,5.67 -0.5,10.37 1.16,3.48 4.58,8.64 0.8,1.22 5.91,7.73 5.91,7.54 9.07,15.32 0.55,1.36 1.08,1.97 0.39,0.46 0.5,0.83 0.92,2.99 2.94,5.42 1.71,2.05 3.23,4.24 -1.43,-0.49 -2.43,-1.58 a 1.08,1.08 -21.8 0 0 -0.82,-0.35 q -3.27,0.11 -6,-2.53 -4.35,-4.21 -6.16,-7.06 -2.31,-3.64 -5.59,-6.44 -1.02,-0.87 -2.69,-3.56 -1.5,-2.44 -3.41,-4.58 -5.68,-6.36 -7.08,-14.64 -0.41,-2.39 0.02,-4.93 0.41,-2.45 1.11,-4.85 1.1,-3.8 -0.75,-7.07 a 1.16,0.56 -62.3 0 1 0.03,-0.84 q 0.13,-0.4 -0.27,-0.78 5.07,-10.07 13.75,-17.25 z"
         id="path21" /><path
         fill="#8b93db"
         d="m 724.79,276.75 q 6.86,5.67 11.96,12.96 l -1.86,1.48 a 1.55,1.17 83.3 0 0 -0.47,0.8 q -0.31,1.35 -1.47,2.03 -0.46,0.27 -0.71,0.66 -1.16,1.83 -3.1,2.8 a 0.32,0.3 75.8 0 1 -0.43,-0.28 q -0.06,-0.77 -0.85,-0.06 -0.4,0.36 -0.22,-0.11 l 1.05,-2.7 q 0.6,-1.54 -0.65,-0.5 -2.72,2.28 -5.67,4.24 -0.22,0.15 -0.39,0.12 -0.36,-0.05 0.07,-0.63 3.33,-4.46 -0.85,-1.32 a 0.49,0.29 -37.9 0 1 -0.56,0.07 q -0.14,-0.18 0.4,-0.53 1.25,-0.8 1.93,-2.03 0.24,-0.43 -0.2,-0.17 l -4.29,2.63 a 0.28,0.24 74.4 0 1 -0.37,-0.24 q -0.04,-0.65 -0.96,0.16 -5.85,5.18 -11.3,10.76 -0.34,0.35 0.06,0.09 2.05,-1.32 0.71,0.15 -9.51,10.48 -21.49,17.97 -1.3,0.81 -2.74,2.37 -1.27,1.37 -2.79,2.42 -3.28,2.26 -4.33,3.24 -2.78,2.57 -5.72,4.96 -0.09,0.08 -2.63,2.28 -2.66,2.31 -5.9,3.75 a 1.35,1.21 -87.3 0 0 -0.64,0.65 q -0.54,1.21 -1.63,2.02 l -4.97,2.22 q -0.48,0.22 -0.09,-0.17 l 0.91,-0.91 q 0.39,-0.4 -0.14,-0.22 -3.08,1.04 -5.15,3.6 -0.91,1.14 -4.52,2.44 2.23,-2.51 -1.43,-0.25 -0.49,0.3 -0.25,-0.23 1.99,-4.46 5.89,-6.49 0.2,-0.1 0.35,-0.23 1.28,-1.14 -0.28,-0.46 -2.87,1.26 -5.79,2.41 -0.36,0.15 -0.08,-0.13 l 0.67,-0.67 q 0.43,-0.44 -0.14,-0.19 -2.1,0.9 -4.2,1.79 -1.97,0.84 -3.68,2.51 -2.27,2.21 -4.78,4.12 -2.11,1.59 -5.58,2.78 -3.61,1.24 -7.09,2.85 -1.75,0.81 -3.62,2.74 -2.23,2.31 -5.34,4.39 -4.56,3.04 -10.01,7.59 -0.04,0.04 -4.38,3.92 -5.11,4.57 -11.16,7.83 -0.64,0.34 -1.6,1.2 -0.77,0.69 -1.72,1.1 -0.26,0.12 -0.08,-0.1 0.93,-1.07 -0.12,-0.34 -3.56,2.46 -0.98,-0.44 0.73,-0.83 -0.21,-0.26 -2.7,1.65 -0.04,-0.96 0.28,-0.28 0.64,-0.54 12.38,-9 22.78,-20.23 1.31,-1.42 3.41,-2.8 1.87,-1.24 3.52,-2.74 3.85,-3.49 4.97,-4.37 2.43,-1.93 4.73,-4.01 3.04,-2.75 4.72,-3.97 3.65,-2.62 6.9,-4.26 2.21,-1.11 2.82,-3.1 a 0.29,0.28 2.1 0 0 -0.34,-0.35 q -1.47,0.28 -0.03,-0.92 0.15,-0.12 0.52,-0.28 0.34,-0.14 0.44,-0.41 0.19,-0.49 -0.37,-0.2 l -3.57,1.86 q -0.87,0.46 -0.06,-0.13 1.44,-1.05 0.54,-1.02 -0.39,0.01 -0.8,0.31 -13.26,9.8 -25.58,20.73 -2.3,2.05 -6.44,5.13 -3.33,2.47 -6.36,5.3 -1.21,1.13 -2.94,2.16 -1.59,0.95 -3.03,2.11 -0.14,0.1 -3.84,2.8 -2.14,1.57 -3.58,3.89 -0.8,1.29 -6.17,5.35 -0.45,0.34 -3.17,2.8 -1.6,1.45 -3.58,2.39 a 0.57,0.52 61.2 0 1 -0.69,-0.24 q -0.36,-0.59 -0.91,-0.98 a 1.13,0.75 -29.8 0 0 -0.89,-0.06 q -0.94,0.33 -1.37,-0.34 -0.62,-0.97 -0.64,-0.99 -0.8,-0.77 -1.77,-1.33 a 0.54,0.49 -59.5 0 0 -0.68,0.21 q -0.91,1.45 -2.57,1.96 l 16,-17.25 q 0.56,-0.27 0.94,-0.77 2.06,-2.7 3.74,-0.18 a 0.69,0.63 63.6 0 0 0.75,0.29 q 1.98,-0.64 3.94,-2.53 0.96,-0.92 2.25,-1.28 3.01,-0.83 4.98,-2.05 0.22,-0.13 0.45,-0.19 2.27,-0.58 -0.01,0.77 -1.25,0.74 -0.05,1.1 2.49,0.72 4.3,-0.78 1.63,-1.35 1.68,-1.38 6.62,-4.49 10.97,-8.77 5.51,-5.44 11.11,-10.8 0.62,-0.59 2.7,-1.85 0.97,-0.59 1.75,-1.46 0.88,-1 1.62,-1.55 1.92,-1.44 3.82,-3.59 3.2,-3.64 7.43,-6.5 3.29,-2.23 5.87,-4.39 2.83,-2.37 5.95,-4.35 1.36,-0.86 2.77,-2.32 1.42,-1.46 2.85,-2.32 6.57,-3.95 11.83,-8.47 3.48,-3 6.72,-5.02 5.25,-3.29 10.18,-7.03 2.95,-2.23 5,-3.39 3.31,-1.88 5.46,-2.65 2.1,-0.75 3.43,-1.99 1.57,-1.46 1.63,-1.51 6.38,-4.98 13.26,-9.24 a 0.8,0.41 38.4 0 1 0.7,0.14 q 0.14,0.09 0.36,0.11 0.33,0.03 0.14,0.29 -0.97,1.29 0.29,0.7 0.36,-0.16 0.16,0.16 -1.77,2.87 1.09,0.4 1.89,-1.63 0.5,0.5 -0.69,1.07 0.15,0.73 0.19,-0.08 0.38,-0.3 1.02,-1.22 2.63,-0.37 1.62,0.84 2.96,-0.37 z"
         id="path23" /><path
         fill="#6f77cb"
         d="m 736.75,289.71 q 3.99,5.66 6.04,12.29 -1.41,0.52 -2.12,1.74 a 1.71,1.37 -81.4 0 1 -0.69,0.64 q -3.14,1.45 -4.32,4.65 a 1.46,1.3 87.8 0 1 -0.59,0.72 q -4.88,2.83 -9.57,6 -0.94,0.64 -1.96,2.04 -0.87,1.19 -2.03,2.06 -2.47,1.85 -3.25,2.65 -2.8,2.86 -6.26,4.93 -0.47,0.28 -0.12,-0.13 l 7.13,-8.43 q 0.57,-0.67 -0.19,-0.26 l -3.34,1.8 q -0.35,0.19 -0.12,-0.12 1.58,-2.08 3.53,-3.82 0.18,-0.17 0.27,-0.36 0.39,-0.9 -0.59,-0.29 -1.61,1.01 -2.75,2.46 -1.35,1.72 -2.51,2.57 -2.64,1.95 -4.8,4.38 -2.79,3.15 -4.5,4.57 -5,4.14 -9.84,8.45 -0.08,0.07 -3.32,2.74 -3.16,2.61 -5.4,6.05 -0.03,0.05 -1.08,2.14 -1.1,2.19 -3.75,3.55 a 3.32,3.31 -6.8 0 0 -1.7,2.15 q -0.67,2.82 -2.79,5.43 -0.29,0.36 0.14,0.15 3.43,-1.72 0.64,1.24 -0.44,0.47 0.14,0.26 l 3.95,-1.42 q 0.4,-0.15 0.14,0.18 l -1.57,2 q -0.54,0.68 0.3,0.48 1.69,-0.39 2.38,-1.85 1.71,-3.67 5.63,-4.4 a 0.39,0.39 -1.7 0 1 0.46,0.43 q -0.18,1.37 0.53,0.26 1.3,-2.03 3.17,-3.52 a 0.71,0.28 31.1 0 1 0.64,0.11 q 0.51,0.27 1.85,-1.87 0.49,-0.8 0.57,0.13 0.24,2.92 1.63,0.03 0.2,-0.42 0.19,0.03 -0.03,2.66 0.87,5.11 0.5,1.34 0.43,2.27 -0.1,1.16 -0.43,2.32 l -8,8.25 q -0.83,-0.54 -1.26,0.08 -0.59,0.86 -0.59,0.86 -15.67,15.84 -21.88,23.12 -6.17,7.25 -12.68,14.06 -0.35,0.37 -0.12,-0.09 1.52,-3 0.43,-2.17 a 1,0.74 -49 0 1 -0.86,0.19 q -0.97,-0.36 -1.41,-1.34 a 1.14,1.12 87.2 0 0 -0.65,-0.6 q -2.11,-0.75 -1.73,-3.1 a 0.48,0.47 -83.3 0 0 -0.43,-0.55 q -1.94,-0.15 -1.41,-1.46 a 0.39,0.38 -71.3 0 0 -0.25,-0.52 l -2.98,-0.8 a 0.39,0.34 -65 0 1 -0.16,-0.56 q 0.28,-0.43 0.27,-0.88 a 0.57,0.47 -0.6 0 0 -0.58,-0.47 q -3.65,0.06 -1.67,-2.1 0.31,-0.33 -0.14,-0.42 -1.18,-0.23 -0.44,-1.25 1.54,-2.12 2.59,-2.96 a 1.33,0.97 23 0 1 0.91,-0.21 q 2.71,0.35 4.43,-1.52 1,-1.08 1.1,-1.17 4.56,-4.27 8.44,-9.18 0.9,-1.13 2.24,-1.62 a 1.79,1.42 -76.4 0 0 0.74,-0.58 l 3.47,-4.76 q 0.41,-0.56 -0.25,-0.37 -1.62,0.48 -0.86,-0.32 1.56,-1.68 2.29,-3.84 0.17,-0.48 -0.31,-0.28 -4.5,1.94 -8.07,5.24 -0.99,0.92 -2.11,1.33 -1.18,0.43 -2.38,0.83 -0.44,0.15 -0.15,-0.22 l 6.94,-8.89 q 0.32,-0.42 0.76,-0.61 3.96,-1.72 5.37,-5.59 0.14,-0.39 0.41,-0.71 2.03,-2.32 0.37,-1.59 -0.94,0.42 -1.75,1.04 -2.49,1.94 -1.49,0.09 0.29,-0.54 -0.19,-0.16 -1.76,1.37 -1.18,0.2 0.1,-0.19 0.28,-0.38 1.25,-1.27 -0.55,-0.33 -0.21,0.11 -0.4,0.34 -0.56,0.66 -1.36,0.97 0.32,-0.91 -0.69,-0.13 -1.61,1.23 -0.5,-0.04 4.47,-5.14 -0.93,-1.7 -2.4,1.52 -0.74,-0.29 0.27,-0.3 -0.09,-0.14 l -7.33,3.15 q -0.58,0.25 -0.16,-0.21 l 9.24,-10.23 q 0.25,-0.28 -0.08,-0.09 -1.91,1.11 -0.51,-0.78 1.09,-0.81 1.63,-2.02 a 1.35,1.21 -87.3 0 1 0.64,-0.65 q 3.24,-1.44 5.9,-3.75 2.54,-2.2 2.63,-2.28 2.94,-2.39 5.72,-4.96 1.05,-0.98 4.33,-3.24 1.52,-1.05 2.79,-2.42 1.44,-1.56 2.74,-2.37 11.98,-7.49 21.49,-17.97 1.34,-1.47 -0.71,-0.15 -0.4,0.26 -0.06,-0.09 5.45,-5.58 11.3,-10.76 0.92,-0.81 0.96,-0.16 a 0.28,0.24 74.4 0 0 0.37,0.24 l 4.29,-2.63 q 0.44,-0.26 0.2,0.17 -0.68,1.23 -1.93,2.03 -0.54,0.35 -0.4,0.53 a 0.49,0.29 -37.9 0 0 0.56,-0.07 q 4.18,-3.14 0.85,1.32 -0.43,0.58 -0.07,0.63 0.17,0.03 0.39,-0.12 2.95,-1.96 5.67,-4.24 1.25,-1.04 0.65,0.5 l -1.05,2.7 q -0.18,0.47 0.22,0.11 0.79,-0.71 0.85,0.06 a 0.32,0.3 75.8 0 0 0.43,0.28 q 1.94,-0.97 3.1,-2.8 0.25,-0.39 0.71,-0.66 1.16,-0.68 1.47,-2.03 a 1.55,1.17 83.3 0 1 0.47,-0.8 z"
         id="path25" /><path
         fill="#01c5d1"
         d="m 279.46,293.25 q 0.4,0.38 0.27,0.78 a 1.16,0.56 -62.3 0 0 -0.03,0.84 q 1.85,3.27 0.75,7.07 -0.7,2.4 -1.11,4.85 -0.43,2.54 -0.02,4.93 1.4,8.28 7.08,14.64 1.91,2.14 3.41,4.58 1.67,2.69 2.69,3.56 3.28,2.8 5.59,6.44 1.81,2.85 6.16,7.06 2.73,2.64 6,2.53 a 1.08,1.08 -21.8 0 1 0.82,0.35 q 1,1.09 2.43,1.58 0.15,0.94 1,1.25 -0.37,-0.05 -0.54,0.29 -0.76,0.19 -0.71,1.25 0.08,1.6 -0.04,9 0.04,1.02 -0.66,1.25 a 0.67,0.57 -10.3 0 0 -0.45,0.55 q -0.01,1.09 -1.16,0.51 -1.5,-0.75 -3.19,-2.56 -5.85,-6.27 -13.24,-10.6 -0.25,-0.14 -0.05,0.08 0.88,1.04 -0.34,0.36 -1.5,-0.82 -0.45,0.52 0.37,0.48 -0.16,0.19 -4.63,-2.55 -8.8,-5.56 -2.48,-1.79 -3.93,-4.38 -3.12,-5.56 -4.95,-11.7 -0.14,-0.44 -0.02,-0.96 0.78,-3.37 -0.56,-7.95 -1.05,-3.6 0.81,-8.19 0.57,-1.4 0.24,-4.57 a 1.29,1.27 -72.4 0 0 -0.42,-0.83 l -1.38,-1.2 q 1.12,-8.41 4.96,-15.96 z"
         id="path27" /><path
         fill="#6563bc"
         d="m 742.79,302 q 3.32,9.57 3.71,20.25 0.41,11.29 0.21,20 -0.35,-0.98 -0.77,-0.2 a 0.66,0.65 -71.7 0 1 -0.68,0.35 q -1.67,-0.24 -2.66,0.93 -1.5,1.77 -1.67,1.91 -2.67,2.2 -4.92,4.82 -0.32,0.37 -0.79,0.55 -3.83,1.44 -6.71,4.21 -3.63,3.5 -3.77,3.62 -1.54,1.34 -3.99,3.56 -4.8,4.34 -12.35,7.25 -0.54,0.21 -1.16,0.73 -0.54,0.46 -1.2,0.77 -1.11,-6.55 -3.37,-12.78 a 0.31,0.31 -32.3 0 0 -0.51,-0.11 l -4.37,4.39 q 0.33,-1.16 0.43,-2.32 0.07,-0.93 -0.43,-2.27 -0.9,-2.45 -0.87,-5.11 0.01,-0.45 -0.19,-0.03 -1.39,2.89 -1.63,-0.03 -0.08,-0.93 -0.57,-0.13 -1.34,2.14 -1.85,1.87 a 0.71,0.28 31.1 0 0 -0.64,-0.11 q -1.87,1.49 -3.17,3.52 -0.71,1.11 -0.53,-0.26 a 0.39,0.39 -1.7 0 0 -0.46,-0.43 q -3.92,0.73 -5.63,4.4 -0.69,1.46 -2.38,1.85 -0.84,0.2 -0.3,-0.48 l 1.57,-2 q 0.26,-0.33 -0.14,-0.18 l -3.95,1.42 q -0.58,0.21 -0.14,-0.26 2.79,-2.96 -0.64,-1.24 -0.43,0.21 -0.14,-0.15 2.12,-2.61 2.79,-5.43 a 3.32,3.31 -6.8 0 1 1.7,-2.15 q 2.65,-1.36 3.75,-3.55 1.05,-2.09 1.08,-2.14 2.24,-3.44 5.4,-6.05 3.24,-2.67 3.32,-2.74 4.84,-4.31 9.84,-8.45 1.71,-1.42 4.5,-4.57 2.16,-2.43 4.8,-4.38 1.16,-0.85 2.51,-2.57 1.14,-1.45 2.75,-2.46 0.98,-0.61 0.59,0.29 -0.09,0.19 -0.27,0.36 -1.95,1.74 -3.53,3.82 -0.23,0.31 0.12,0.12 l 3.34,-1.8 q 0.76,-0.41 0.19,0.26 l -7.13,8.43 q -0.35,0.41 0.12,0.13 3.46,-2.07 6.26,-4.93 0.78,-0.8 3.25,-2.65 1.16,-0.87 2.03,-2.06 1.02,-1.4 1.96,-2.04 4.69,-3.17 9.57,-6 a 1.46,1.3 87.8 0 0 0.59,-0.72 q 1.18,-3.2 4.32,-4.65 a 1.71,1.37 -81.4 0 0 0.69,-0.64 q 0.71,-1.22 2.12,-1.74 z"
         id="path29" /><path
         fill="#01a7c3"
         d="m 274.5,309.21 1.38,1.2 a 1.29,1.27 -72.4 0 1 0.42,0.83 q 0.33,3.17 -0.24,4.57 -1.86,4.59 -0.81,8.19 1.34,4.58 0.56,7.95 -0.12,0.52 0.02,0.96 1.83,6.14 4.95,11.7 1.45,2.59 3.93,4.38 4.17,3.01 8.8,5.56 0.53,0.29 0.16,-0.19 -1.05,-1.34 0.45,-0.52 1.22,0.68 0.34,-0.36 -0.2,-0.22 0.05,-0.08 7.39,4.33 13.24,10.6 1.69,1.81 3.19,2.56 1.15,0.58 1.16,-0.51 a 0.67,0.57 -10.3 0 1 0.45,-0.55 q 0.7,-0.23 0.66,-1.25 -0.12,8.38 0.23,16.75 0.15,3.49 1.35,6.75 3.52,5.48 5.96,8 1.73,1.79 2.87,3.34 2.02,2.74 2.68,3.46 1.63,1.77 3.26,3.52 1.41,1.51 2.99,3.7 2.81,3.89 6.13,7.34 5.09,5.27 5.12,5.3 12.11,13.26 24.22,26.53 2.47,2.72 9.03,10.49 4.26,5.06 9.25,10.29 a 1.78,1.77 27.9 0 1 0.46,1.48 q -0.85,5.26 -0.78,10.55 0.19,13.87 -0.09,27.75 -0.33,16.54 0.16,33.08 0.15,5.16 -0.02,11.83 -0.15,5.92 -0.03,11.84 0.04,1.97 1.46,1.5 l -0.26,12.12 q -0.01,0.47 -0.31,0.11 -3.18,-3.8 -6.77,-7.6 -48.46,-51.31 -95.68,-103.77 -3.06,-3.4 -5.09,-6 -3.13,-4.02 -4.54,-6.42 -2.35,-4.01 -2.29,-9.69 0.76,-74.77 0.48,-121.25 -0.05,-8.95 1.5,-16.04 z"
         id="path31" /><path
         fill="#789adc"
         d="m 644.79,353.75 q -3.18,3.08 -6.01,6.47 -1.59,1.9 -3.79,3.22 -4.31,2.58 -8.15,5.87 -0.17,0.14 -0.34,0.21 -0.84,0.33 -0.28,-0.44 0.21,-0.27 -0.12,-0.22 -2.46,0.36 -4.24,2.03 -0.37,0.35 -0.84,0.47 -4.03,1.03 -6.09,4.63 a 1.26,1.23 -82.8 0 1 -0.72,0.57 l -2.43,0.72 q -0.43,0.13 -0.1,-0.2 1.43,-1.45 -0.27,-0.71 -5,2.17 -9.05,5.64 -4.6,3.94 -6.15,4.95 -5.04,3.28 -10.36,6.08 -2.22,1.17 -4.12,3.17 -1.83,1.92 -3.85,3.65 -0.68,0.58 -2.31,2.68 -1.13,1.46 -2.91,2.22 a 1.58,1.42 -82.7 0 0 -0.72,0.62 q -0.38,0.61 -0.75,0.81 -3.29,1.7 -6.37,3.73 -0.07,0.05 -2.38,1.33 -1.38,0.76 -2.31,2 -2.02,2.7 -2.08,2.76 -2.78,2.95 -5.35,5.89 -1.64,1.88 -4.13,1.91 -4.04,0.06 -7.63,1.83 -0.73,0.36 -1.47,0.42 -0.77,0.05 -1.55,0.11 -0.86,0.06 -2.23,0.56 -2.01,0.73 -4.19,0.27 -2.45,-0.52 -2.78,-2.89 A 0.18,0.17 -22.8 0 0 528.44,424 q -1.62,1.18 -0.04,-0.74 0.13,-0.16 0.37,-0.32 0.88,-0.6 0.94,-1.69 1.73,-2.75 4.39,-4.64 2.25,-1.6 3.23,-4.15 0.19,-0.47 0.55,-0.78 4.37,-3.82 7.64,-8.65 0.9,-1.33 -0.27,-1.57 l 5.21,-5.96 q 0.26,0.3 0.69,0.3 0.29,0 0.63,-0.27 2.1,-1.65 3.97,-3.57 1.66,-0.51 2.57,-1.96 a 0.54,0.49 -59.5 0 1 0.68,-0.21 q 0.97,0.56 1.77,1.33 0.02,0.02 0.64,0.99 0.43,0.67 1.37,0.34 a 1.13,0.75 -29.8 0 1 0.89,0.06 q 0.55,0.39 0.91,0.98 a 0.57,0.52 61.2 0 0 0.69,0.24 q 1.98,-0.94 3.58,-2.39 2.72,-2.46 3.17,-2.8 5.37,-4.06 6.17,-5.35 1.44,-2.32 3.58,-3.89 3.7,-2.7 3.84,-2.8 1.44,-1.16 3.03,-2.11 1.73,-1.03 2.94,-2.16 3.03,-2.83 6.36,-5.3 4.14,-3.08 6.44,-5.13 12.32,-10.93 25.58,-20.73 0.41,-0.3 0.8,-0.31 0.9,-0.03 -0.54,1.02 -0.81,0.59 0.06,0.13 l 3.57,-1.86 q 0.56,-0.29 0.37,0.2 -0.1,0.27 -0.44,0.41 -0.37,0.16 -0.52,0.28 -1.44,1.2 0.03,0.92 a 0.29,0.28 2.1 0 1 0.34,0.35 q -0.61,1.99 -2.82,3.1 -3.25,1.64 -6.9,4.26 -1.68,1.22 -4.72,3.97 -2.3,2.08 -4.73,4.01 -1.12,0.88 -4.97,4.37 -1.65,1.5 -3.52,2.74 -2.1,1.38 -3.41,2.8 -10.4,11.23 -22.78,20.23 -0.36,0.26 -0.64,0.54 -2.66,2.61 0.04,0.96 0.94,-0.57 0.21,0.26 -2.58,2.9 0.98,0.44 1.05,-0.73 0.12,0.34 -0.18,0.22 0.08,0.1 0.95,-0.41 1.72,-1.1 0.96,-0.86 1.6,-1.2 6.05,-3.26 11.16,-7.83 4.34,-3.88 4.38,-3.92 5.45,-4.55 10.01,-7.59 3.11,-2.08 5.34,-4.39 1.87,-1.93 3.62,-2.74 3.48,-1.61 7.09,-2.85 3.47,-1.19 5.58,-2.78 2.51,-1.91 4.78,-4.12 1.71,-1.67 3.68,-2.51 2.1,-0.89 4.2,-1.79 0.57,-0.25 0.14,0.19 l -0.67,0.67 q -0.28,0.28 0.08,0.13 2.92,-1.15 5.79,-2.41 1.56,-0.68 0.28,0.46 -0.15,0.13 -0.35,0.23 -3.9,2.03 -5.89,6.49 -0.24,0.53 0.25,0.23 3.66,-2.26 1.43,0.25 z"
         id="path33" /><path
         fill="#4d43ad"
         d="m 746.71,342.25 v 18.5 q -0.3,1.74 -0.46,3.5 -0.13,1.43 -1.83,2.04 a 1.94,0.99 -5.3 0 0 -0.82,0.52 l -2.57,3.28 a 1.96,1.55 -76.2 0 1 -0.75,0.58 q -1.67,0.64 -2.92,1.82 -2.28,2.15 -2.46,2.29 -3.24,2.46 -6.5,4.91 a 1.06,0.77 74.9 0 0 -0.31,0.8 q 0.02,0.72 -0.67,1.09 -1.05,0.57 -1.14,0.64 -3.83,2.81 -8.49,3.46 -1.43,0.2 -2.29,0.74 -1.05,0.67 -1.97,1.5 -1.47,1.35 -2.98,2.01 -2.83,1.23 -5.34,3.07 -2.6,1.34 -3.4,2.06 -3.06,2.77 -8.77,8.55 -3.99,4.05 -8.33,8.99 -6.46,7.35 -12.9,14.71 -2.69,3.08 -4.25,4.7 -2.97,3.08 -2.99,3.1 -5.37,6 -11.07,11.68 -0.42,0.03 -0.54,-0.29 20.74,-23.88 42.56,-46.77 3.49,-3.65 6.18,-5.72 3.39,-2.61 7.04,-4.71 a 1.3,1.24 -20.8 0 0 0.63,-1.32 l -3.33,-17.23 q 0.66,-0.31 1.2,-0.77 0.62,-0.52 1.16,-0.73 7.55,-2.91 12.35,-7.25 2.45,-2.22 3.99,-3.56 0.14,-0.12 3.77,-3.62 2.88,-2.77 6.71,-4.21 0.47,-0.18 0.79,-0.55 2.25,-2.62 4.92,-4.82 0.17,-0.14 1.67,-1.91 0.99,-1.17 2.66,-0.93 a 0.66,0.65 -71.7 0 0 0.68,-0.35 q 0.42,-0.78 0.77,0.2 z"
         id="path35" /><path
         fill="#6690d6"
         d="m 658.75,346.79 q -1.4,1.89 0.51,0.78 0.33,-0.19 0.08,0.09 l -9.24,10.23 q -0.42,0.46 0.16,0.21 l 7.33,-3.15 q 0.36,-0.16 0.09,0.14 -1.66,1.81 0.74,0.29 5.4,-3.44 0.93,1.7 -1.11,1.27 0.5,0.04 1.01,-0.78 0.69,0.13 l -8.46,8.64 q -0.37,0.37 -0.81,0.51 -1.29,0.42 -1.52,0.6 -2.56,2.09 -5.6,6.41 -2.63,3.75 -5.9,6.93 -1.29,1.26 -3.48,1.95 -2.64,0.83 -5.05,2.2 -2.65,1.5 -4.89,2.13 -4.15,1.18 -7.92,2.79 -2.09,0.9 -3.45,2.72 -2.11,2.83 -4.44,4.96 -2.05,1.87 -5.66,3.34 -6.17,2.51 -12.3,5.13 -1.09,0.47 -4.74,5.06 -0.2,0.25 0.13,0.17 0.32,-0.08 0.43,0.1 0.12,0.19 -0.09,0.56 -1.98,3.38 -4.69,6.19 a 1.73,1.46 11.6 0 1 -0.85,0.46 q -2.75,0.61 -5.14,2 -3.36,1.98 -3.76,2.15 -2,0.88 -4.1,1.51 -1.07,0.33 -1.6,1.23 -0.27,0.46 -0.65,0.69 -1.37,0.82 0.01,0.84 0.46,0 0.21,0.37 -1.61,2.37 1.16,1.37 1.01,-0.36 2.07,-0.6 0.52,-0.11 0.35,0.38 -0.74,2.31 -3.3,2.45 a 1.17,1.09 -70.8 0 0 -0.8,0.42 q -1.12,1.36 -3.14,1.65 -3.29,0.48 -4.62,3.47 a 1.26,1.04 -2.9 0 1 -0.67,0.61 q -1,0.39 -1.27,1.57 -0.57,0.44 -0.84,1.06 a 1.26,0.8 -79.3 0 1 -0.62,0.66 l -8.04,2.82 q -2.78,0.97 -0.5,-0.75 0.71,-0.54 0.68,-1.19 a 0.42,0.37 -13.3 0 0 -0.57,-0.3 q -1.68,0.69 -0.74,-0.55 0.29,-0.39 -0.17,-0.28 -3.55,0.83 -7.19,1.14 -1.73,0.14 -2.92,1.31 a 1.56,1.56 -71.7 0 1 -0.83,0.42 l -1.83,0.28 a 1.33,1.31 -74.9 0 0 -0.82,0.48 l -3.32,4.05 a 0.98,0.95 20.1 0 1 -0.79,0.35 q -2.22,-0.08 -3.33,1.79 a 0.61,0.59 24.3 0 1 -0.7,0.25 q -1.29,-0.42 -1.98,0.57 -0.14,0.2 -0.06,-0.02 0.92,-2.5 -1.21,-3.38 a 0.5,0.45 24.7 0 1 -0.28,-0.64 q 0.2,-0.39 0.51,-0.67 0.78,-0.68 0.88,-0.93 0.6,-1.43 -1.95,-1.71 -1.54,-0.17 -0.5,-1.32 1.91,-2.09 0.12,-2.36 a 1.54,0.9 -45.8 0 0 -0.91,0.25 q -1.17,0.73 -2.6,0.55 a 1.5,1.45 32.8 0 0 -0.91,0.18 q -1.78,1.06 -3.83,0.44 l 12.5,-14 q 1.43,0.22 2.13,-0.73 0.89,-1.22 0.98,-1.3 1.74,-1.65 3.35,-3.43 -0.06,1.09 -0.94,1.69 -0.24,0.16 -0.37,0.32 -1.58,1.92 0.04,0.74 a 0.18,0.17 -22.8 0 1 0.28,0.11 q 0.33,2.37 2.78,2.89 2.18,0.46 4.19,-0.27 1.37,-0.5 2.23,-0.56 0.78,-0.06 1.55,-0.11 0.74,-0.06 1.47,-0.42 3.59,-1.77 7.63,-1.83 2.49,-0.03 4.13,-1.91 2.57,-2.94 5.35,-5.89 0.06,-0.06 2.08,-2.76 0.93,-1.24 2.31,-2 2.31,-1.28 2.38,-1.33 3.08,-2.03 6.37,-3.73 0.37,-0.2 0.75,-0.81 a 1.58,1.42 -82.7 0 1 0.72,-0.62 q 1.78,-0.76 2.91,-2.22 1.63,-2.1 2.31,-2.68 2.02,-1.73 3.85,-3.65 1.9,-2 4.12,-3.17 5.32,-2.8 10.36,-6.08 1.55,-1.01 6.15,-4.95 4.05,-3.47 9.05,-5.64 1.7,-0.74 0.27,0.71 -0.33,0.33 0.1,0.2 l 2.43,-0.72 a 1.26,1.23 -82.8 0 0 0.72,-0.57 q 2.06,-3.6 6.09,-4.63 0.47,-0.12 0.84,-0.47 1.78,-1.67 4.24,-2.03 0.33,-0.05 0.12,0.22 -0.56,0.77 0.28,0.44 0.17,-0.07 0.34,-0.21 3.84,-3.29 8.15,-5.87 2.2,-1.32 3.79,-3.22 2.83,-3.39 6.01,-6.47 3.61,-1.3 4.52,-2.44 2.07,-2.56 5.15,-3.6 0.53,-0.18 0.14,0.22 l -0.91,0.91 q -0.39,0.39 0.09,0.17 z"
         id="path37" /><path
         fill="#2c75a1"
         d="m 424.75,348.29 q 4.19,3.67 7.81,7.9 13.75,16.04 28.34,31.32 0.36,0.38 0.39,0.7 0.05,0.46 -0.29,0.83 l -33,-36.83 -1.71,-1.96 z"
         id="path39" /><path
         fill="#0af3f4"
         d="m 426.29,350.25 1.71,1.96 q -1.29,1.94 -0.26,3.86 a 0.99,0.71 -7.8 0 0 0.76,0.4 q 1.04,0.06 0.5,1.28 -1.25,2.83 -1.26,4.72 0,0.29 -0.08,0.55 -0.48,1.46 0.3,0.57 0.22,-0.25 0.2,0.08 -0.08,1.86 0.71,0.23 0.99,-2.02 1.77,-4.11 a 0.47,0.43 -65.5 0 1 0.64,-0.27 q 0.81,0.46 0.78,1.48 -0.02,0.57 0.14,0.96 0.9,2.22 0.35,4.6 -0.05,0.19 -0.02,0.4 0.19,1.3 -0.39,0.29 -0.14,-0.24 -0.21,0.01 l -2.54,8.75 q -0.12,0.42 -0.51,0.83 -0.63,0.68 -0.84,1.56 -0.46,1.94 -0.48,2 -1.18,2.95 -2.37,5.89 -0.95,2.38 -2.89,5.65 -1.81,3.06 -3.2,6.32 -1.93,4.52 -2.95,6.43 -3.75,6.99 -7.59,13.93 -0.5,0.89 -2.29,2.68 -1.64,1.64 -2.64,4.52 a 2.23,2.22 4.1 0 1 -1.69,1.46 q -1.98,0.37 -2.36,-0.3 a 1.09,0.16 62.6 0 0 -0.52,-0.72 q -1.17,-0.57 -2.39,-0.33 a 1.77,1.4 43.8 0 1 -0.94,-0.09 q -2.01,-0.78 -3.76,2.27 a 1.23,1.22 25.3 0 1 -1.5,0.53 q -1.18,-0.45 -0.49,0.69 0.23,0.4 -0.18,0.22 l -2.3,-1.01 q -6.62,-5.74 -12.08,-12.59 -0.56,-0.69 -0.94,-1.67 -0.36,-0.9 -0.79,-1.76 -0.58,-1.15 -1.82,-2.18 -5.49,-4.56 -9.37,-10.55 2.09,0.08 3.68,1.32 0.42,0.33 0.88,0.42 5.69,1.15 8.44,3.47 3.31,2.79 6.76,2.33 0.44,-0.06 0.95,0.11 1.71,0.54 2.81,-1.39 0.57,-1 1.54,-1.62 4.58,-2.93 7.83,-6.88 1.58,-1.92 3.77,-4.07 2.02,-1.98 3.52,-4.38 3.02,-4.83 3.06,-4.89 3.24,-4.46 4.32,-5.15 2.64,-1.67 4,-6 0.39,-1.23 2.9,-4.89 a 0.82,0.54 -59 0 1 0.79,-0.38 l 0.38,0.16 a 0.57,0.38 28.9 0 0 0.57,-0.05 q 3.3,-3.7 3.86,-7.09 0.54,-3.2 1.6,-4.95 a 1.94,1.63 -33.7 0 0 0.27,-0.93 q -0.01,-2.29 0.38,-3.87 0.24,-0.95 1.48,-0.81 z"
         id="path41" /><path
         fill="#23d9f3"
         d="m 428,352.21 33,36.83 2.79,2.96 q -1.15,1.87 -3.01,0.79 -1.9,-1.11 -1.44,0.49 a 1.52,1.28 52.4 0 1 -0.04,0.93 q -1.64,3.89 -2.07,8.11 a 1.83,1.41 39.6 0 0 0.21,0.93 q 1.49,2.71 0.93,5.64 -0.49,2.56 -0.52,2.76 -0.25,1.93 -0.77,3.81 a 1.66,1.54 -12.8 0 1 -0.54,0.79 q -4.83,3.88 -9.59,7.84 -0.05,0.04 -5.28,3.86 -5.74,4.19 -8.25,11.07 a 1.65,1.29 52 0 0 0,0.96 q 0.75,2.36 -1.2,3.81 a 1.32,1.09 -17.1 0 0 -0.5,0.76 q -0.56,3.35 0.13,6.68 0.64,3.12 1.1,6.28 0.45,3.05 3.21,4.11 2.49,0.96 4.87,0.46 3.57,-0.75 3.91,-0.71 2.71,0.38 3,3.69 0.22,2.58 0.78,3.92 a 1.01,0.84 53.5 0 1 -0.05,0.87 l -6.2,9.18 q -0.26,0.39 -0.34,0.91 -0.38,2.63 -2.42,4.32 a 0.96,0.92 69.3 0 0 -0.34,0.79 q 0.07,1.26 -0.87,1.99 l -42.75,-45.75 q 1.37,0.13 1.32,-0.86 -0.03,-0.5 -0.55,-1.1 -4.59,-5.32 -9.02,-10.79 l 2.3,1.01 q 0.41,0.18 0.18,-0.22 -0.69,-1.14 0.49,-0.69 a 1.23,1.22 25.3 0 0 1.5,-0.53 q 1.75,-3.05 3.76,-2.27 a 1.77,1.4 43.8 0 0 0.94,0.09 q 1.22,-0.24 2.39,0.33 a 1.09,0.16 62.6 0 1 0.52,0.72 q 0.38,0.67 2.36,0.3 a 2.23,2.22 4.1 0 0 1.69,-1.46 q 1,-2.88 2.64,-4.52 1.79,-1.79 2.29,-2.68 3.84,-6.94 7.59,-13.93 1.02,-1.91 2.95,-6.43 1.39,-3.26 3.2,-6.32 1.94,-3.27 2.89,-5.65 1.19,-2.94 2.37,-5.89 0.02,-0.06 0.48,-2 0.21,-0.88 0.84,-1.56 0.39,-0.41 0.51,-0.83 l 2.54,-8.75 q 0.07,-0.25 0.21,-0.01 0.58,1.01 0.39,-0.29 -0.03,-0.21 0.02,-0.4 0.55,-2.38 -0.35,-4.6 -0.16,-0.39 -0.14,-0.96 0.03,-1.02 -0.78,-1.48 a 0.47,0.43 -65.5 0 0 -0.64,0.27 q -0.78,2.09 -1.77,4.11 -0.79,1.63 -0.71,-0.23 0.02,-0.33 -0.2,-0.08 -0.78,0.89 -0.3,-0.57 0.08,-0.26 0.08,-0.55 0.01,-1.89 1.26,-4.72 0.54,-1.22 -0.5,-1.28 a 0.99,0.71 -7.8 0 1 -0.76,-0.4 q -1.03,-1.92 0.26,-3.86 z"
         id="path43" /><path
         fill="#59eaeb"
         d="m 313.96,354 q 0.4,14.86 0.76,29.73 0.03,1.08 0.25,2.01 0.24,0.99 0.53,1.97 l -0.71,0.04 q -1.2,-3.26 -1.35,-6.75 -0.35,-8.37 -0.23,-16.75 0.12,-7.4 0.04,-9 -0.05,-1.06 0.71,-1.25 z"
         id="path45" /><path
         fill="#5380ce"
         d="m 689.79,370.5 q -48.97,53.07 -60.98,66.81 -27.66,31.68 -36.02,40.69 -0.47,-0.94 0.52,-1.94 4.78,-4.83 11.19,-12.86 a 1.28,1.07 -32.7 0 0 0.28,-0.89 q -0.26,-2.18 -2.72,-3.87 -1.94,-1.34 -0.99,-3.98 a 0.41,0.4 -75.3 0 0 -0.3,-0.54 q -1,-0.16 -2.01,-0.28 -0.3,-0.04 -2.47,-0.47 -2.13,-0.42 -4.25,0.23 a 1.72,1.6 -77.9 0 0 -0.79,0.55 q -3.75,4.68 -6.48,10.03 -0.75,1.46 -2.82,0.94 a 1.74,1.73 -72.6 0 0 -2.04,1.07 q -0.59,1.53 -2.59,0.36 a 0.97,0.97 36.1 0 0 -1.22,0.19 q -0.86,0.95 -0.52,-0.17 a 0.56,0.49 -61.5 0 0 -0.12,-0.54 q -1.09,-1 -2.05,0.08 -1.05,1.19 -2.66,0.38 l -3.7,-0.41 q -0.48,-0.05 -0.13,-0.4 1.43,-1.41 -0.27,-1.68 -0.37,-0.05 -1.3,0.06 -2.05,0.24 -0.79,-1.44 0.32,-0.42 -0.22,-0.43 l -2.59,-0.03 1.67,-5.67 a 0.79,0.76 -85.7 0 1 0.63,-0.56 l 3.46,-0.44 a 1.09,1.01 11.5 0 0 0.77,-0.47 q 1.77,-2.8 2.17,-6.1 a 0.55,0.45 -85 0 0 -0.41,-0.61 l -0.48,-0.02 q -0.5,-0.02 -0.26,-0.34 l 1.78,-2.47 q 1.08,-1.49 -0.66,-1.07 l -5.12,1.24 a 1.36,1.33 -78.9 0 0 -0.77,0.53 l -1.93,2.8 q -0.25,0.37 -0.25,-0.1 0,-0.77 -0.51,-0.61 -0.66,0.22 -0.72,0.22 -3.02,0.36 -5.9,1.3 a 1.47,1.34 -80.4 0 0 -0.74,0.58 l -1.85,2.8 q -0.4,0.6 0.31,0.55 1.54,-0.1 0.82,0.82 a 0.33,0.31 -34.9 0 0 -0.06,0.28 q 0.66,2.68 -0.87,4.02 a 1.81,0.71 0 0 1 -0.89,0.35 q -1.31,0.23 -2.12,1.33 -1.66,2.22 -3.49,4.31 a 1.11,0.96 19.4 0 1 -0.83,0.33 q -1.98,-0.07 -2.8,1.58 a 1.03,0.78 -75.7 0 1 -0.69,0.55 l -3.01,0.37 0.09,-0.97 a 0.57,0.36 1.7 0 0 -0.58,-0.39 l -2.27,0.01 a 0.46,0.38 -80.4 0 1 -0.34,-0.58 q 1.57,-5.13 -3.4,-3.53 -1.91,0.61 -5.27,-0.14 a 0.48,0.43 -77.6 0 1 -0.32,-0.57 q 0.25,-1.04 -0.86,-1.28 a 0.38,0.37 20 0 1 -0.26,-0.53 q 0.96,-1.86 2.57,-3.18 a 1.15,0.96 27.8 0 1 0.88,-0.19 q 2.76,0.53 2.09,-2.05 a 0.88,0.87 86.3 0 1 0.95,-1.09 q 1.93,0.24 2.99,-1 a 1.39,0.61 -59 0 1 0.78,-0.55 l 4.76,-0.63 a 1.41,0.65 3.2 0 0 0.84,-0.33 l 1.01,-1.09 a 1.94,1.78 12 0 1 0.83,-0.49 l 5.29,-1.48 a 1.7,1.24 -72.4 0 0 0.76,-0.56 q 1.59,-2.12 4.22,-2.74 a 1.43,1.22 7.9 0 0 0.8,-0.51 q 1.72,-2.41 1.44,-5.38 0.27,-1.18 1.27,-1.57 a 1.26,1.04 -2.9 0 0 0.67,-0.61 q 1.33,-2.99 4.62,-3.47 2.02,-0.29 3.14,-1.65 a 1.17,1.09 -70.8 0 1 0.8,-0.42 q 2.56,-0.14 3.3,-2.45 0.17,-0.49 -0.35,-0.38 -1.06,0.24 -2.07,0.6 -2.77,1 -1.16,-1.37 0.25,-0.37 -0.21,-0.37 -1.38,-0.02 -0.01,-0.84 0.38,-0.23 0.65,-0.69 0.53,-0.9 1.6,-1.23 2.1,-0.63 4.1,-1.51 0.4,-0.17 3.76,-2.15 2.39,-1.39 5.14,-2 a 1.73,1.46 11.6 0 0 0.85,-0.46 q 2.71,-2.81 4.69,-6.19 0.21,-0.37 0.09,-0.56 -0.11,-0.18 -0.43,-0.1 -0.33,0.08 -0.13,-0.17 3.65,-4.59 4.74,-5.06 6.13,-2.62 12.3,-5.13 3.61,-1.47 5.66,-3.34 2.33,-2.13 4.44,-4.96 1.36,-1.82 3.45,-2.72 3.77,-1.61 7.92,-2.79 2.24,-0.63 4.89,-2.13 2.41,-1.37 5.05,-2.2 2.19,-0.69 3.48,-1.95 3.27,-3.18 5.9,-6.93 3.04,-4.32 5.6,-6.41 0.23,-0.18 1.52,-0.6 0.44,-0.14 0.81,-0.51 l 8.46,-8.64 q 0.8,-0.31 1.36,-0.97 0.19,-0.23 0.4,-0.34 1.8,-0.94 0.55,0.33 -0.18,0.19 -0.28,0.38 -0.58,1.17 1.18,-0.2 0.48,-0.38 0.19,0.16 -1,1.85 1.49,-0.09 0.81,-0.62 1.75,-1.04 1.66,-0.73 -0.37,1.59 -0.27,0.32 -0.41,0.71 -1.41,3.87 -5.37,5.59 -0.44,0.19 -0.76,0.61 l -6.94,8.89 q -0.29,0.37 0.15,0.22 1.2,-0.4 2.38,-0.83 1.12,-0.41 2.11,-1.33 3.57,-3.3 8.07,-5.24 0.48,-0.2 0.31,0.28 -0.73,2.16 -2.29,3.84 -0.76,0.8 0.86,0.32 0.66,-0.19 0.25,0.37 l -3.47,4.76 a 1.79,1.42 -76.4 0 1 -0.74,0.58 q -1.34,0.49 -2.24,1.62 -3.88,4.91 -8.44,9.18 -0.1,0.09 -1.1,1.17 -1.72,1.87 -4.43,1.52 a 1.33,0.97 23 0 0 -0.91,0.21 q -1.05,0.84 -2.59,2.96 -0.74,1.02 0.44,1.25 0.45,0.09 0.14,0.42 -1.98,2.16 1.67,2.1 a 0.57,0.47 -0.6 0 1 0.58,0.47 q 0.01,0.45 -0.27,0.88 a 0.39,0.34 -65 0 0 0.16,0.56 l 2.98,0.8 a 0.39,0.38 -71.3 0 1 0.25,0.52 q -0.53,1.31 1.41,1.46 a 0.48,0.47 -83.3 0 1 0.43,0.55 q -0.38,2.35 1.73,3.1 a 1.14,1.12 87.2 0 1 0.65,0.6 q 0.44,0.98 1.41,1.34 a 1,0.74 -49 0 0 0.86,-0.19 q 1.09,-0.83 -0.43,2.17 -0.23,0.46 0.12,0.09 6.51,-6.81 12.68,-14.06 6.21,-7.28 21.88,-23.12 0,0 0.59,-0.86 0.43,-0.62 1.26,-0.08 z"
         id="path47" /><path
         fill="#59eaeb"
         d="m 362.5,399.79 q 3.88,5.99 9.37,10.55 1.24,1.03 1.82,2.18 0.43,0.86 0.79,1.76 0.38,0.98 0.94,1.67 5.46,6.85 12.08,12.59 4.43,5.47 9.02,10.79 0.52,0.6 0.55,1.1 0.05,0.99 -1.32,0.86 -24.12,-26.15 -48.06,-52.48 -24.44,-26.87 -28.9,-32.06 1.22,-0.83 2.71,0.5 3.43,3.07 5.71,5.76 4.5,5.35 5.13,6 3.1,3.24 6.02,6.64 5.67,6.6 12.07,12.49 2.5,2.3 5.94,5.9 2.91,3.04 6.13,5.75 z"
         id="path49" /><path
         fill="#3a2ea6"
         d="m 746.71,360.75 v 22 l -0.21,6.5 q -0.08,2.5 -1.44,2.56 -2.22,0.12 -3.93,1.58 -1.6,1.37 -3.43,2.33 -2.48,1.28 -3.52,2.1 -3.16,2.5 -6.14,5.22 -2.97,2.72 -5.29,2.46 -1.97,-0.22 -3.9,1.18 a 4.29,4.29 -66.2 0 1 -2.46,0.82 q -2.08,0.02 -3.86,0.55 -0.88,0.27 -3.33,1.83 -4.34,2.79 -9.84,2.1 a 0.41,0.41 13.4 0 1 -0.34,-0.55 q 0.45,-1.22 -1.08,-1.08 -2.59,0.25 -1.15,-1.37 0.14,-0.17 -0.07,-0.2 l -0.22,-0.03 q -0.43,-0.06 -0.11,-0.36 3.15,-2.98 5.85,-6.37 0.25,-0.32 1.08,-0.95 0.99,-0.74 0.05,-1.73 a 0.57,0.52 46.5 0 0 -0.77,-0.05 l -1.81,1.7 q -0.32,0.29 -0.17,-0.11 1.63,-4.48 4.59,-7.88 2.51,-1.84 5.34,-3.07 1.51,-0.66 2.98,-2.01 0.92,-0.83 1.97,-1.5 0.86,-0.54 2.29,-0.74 4.66,-0.65 8.49,-3.46 0.09,-0.07 1.14,-0.64 0.69,-0.37 0.67,-1.09 a 1.06,0.77 74.9 0 1 0.31,-0.8 q 3.26,-2.45 6.5,-4.91 0.18,-0.14 2.46,-2.29 1.25,-1.18 2.92,-1.82 a 1.96,1.55 -76.2 0 0 0.75,-0.58 l 2.57,-3.28 a 1.94,0.99 -5.3 0 1 0.82,-0.52 q 1.7,-0.61 1.83,-2.04 0.16,-1.76 0.46,-3.5 z"
         id="path51" /><path
         fill="#282ea5"
         d="m 746.71,382.75 q 0.28,43.06 -0.21,72.75 -0.04,2.38 -1.84,4.08 -1.3,1.24 -1.36,1.3 -10.76,11.65 -34.49,36.43 -16.5,17.24 -40.77,44.44 -0.65,-1.42 -1.54,-0.46 a 0.93,0.7 -57.5 0 1 -0.8,0.3 q -1.3,-0.32 -2.23,-1.31 -1.64,-1.76 -2.97,-3.75 -1.24,-1.85 -1.43,-4.41 -0.96,-12.99 -0.82,-17.12 0.3,-8.7 0.04,-12.26 -0.03,-0.48 0.18,-0.95 1.79,-4.02 0.82,-9.47 a 2.56,2.53 -73.7 0 0 -0.75,-1.39 q -1.41,-1.33 -1.14,-3.57 0.14,-1.15 0.14,-1.22 0.54,-9 -2.29,-17.48 -0.24,-0.72 -0.54,-2.89 -0.2,-1.53 -1.12,-2.85 -1.95,-2.82 -1.04,-6.22 0.57,-2.15 -1.55,-1.95 -1.79,0.17 -0.75,-1.25 l 1.93,-2.63 a 1.62,0.84 76.6 0 0 0.23,-0.93 q -0.02,-1.73 1.09,-3.15 5.7,-5.68 11.07,-11.68 0.02,-0.02 2.99,-3.1 1.56,-1.62 4.25,-4.7 6.44,-7.36 12.9,-14.71 4.34,-4.94 8.33,-8.99 5.71,-5.78 8.77,-8.55 0.8,-0.72 3.4,-2.06 -2.96,3.4 -4.59,7.88 -0.15,0.4 0.17,0.11 l 1.81,-1.7 a 0.57,0.52 46.5 0 1 0.77,0.05 q 0.94,0.99 -0.05,1.73 -0.83,0.63 -1.08,0.95 -2.7,3.39 -5.85,6.37 -0.32,0.3 0.11,0.36 l 0.22,0.03 q 0.21,0.03 0.07,0.2 -1.44,1.62 1.15,1.37 1.53,-0.14 1.08,1.08 a 0.41,0.41 13.4 0 0 0.34,0.55 q 5.5,0.69 9.84,-2.1 2.45,-1.56 3.33,-1.83 1.78,-0.53 3.86,-0.55 a 4.29,4.29 -65.6 0 0 2.46,-0.82 q 1.93,-1.4 3.9,-1.18 2.32,0.26 5.29,-2.46 2.98,-2.72 6.14,-5.22 1.04,-0.82 3.52,-2.1 1.83,-0.96 3.43,-2.33 1.71,-1.46 3.93,-1.58 1.36,-0.06 1.44,-2.56 z"
         id="path53" /><path
         fill="#22bfd0"
         d="m 314.79,387.75 0.71,-0.04 q 14.66,16.84 29.62,33.41 19.81,21.96 39.38,44.16 1.54,1.74 2.89,4.14 0.37,0.66 0.37,1.42 l -0.3,96.91 q -1.42,0.47 -1.46,-1.5 -0.12,-5.92 0.03,-11.84 0.17,-6.67 0.02,-11.83 -0.49,-16.54 -0.16,-33.08 0.28,-13.88 0.09,-27.75 -0.07,-5.29 0.78,-10.55 a 1.78,1.77 27.9 0 0 -0.46,-1.48 q -4.99,-5.23 -9.25,-10.29 -6.56,-7.77 -9.03,-10.49 -12.11,-13.27 -24.22,-26.53 -0.03,-0.03 -5.12,-5.3 -3.32,-3.45 -6.13,-7.34 -1.58,-2.19 -2.99,-3.7 -1.63,-1.75 -3.26,-3.52 -0.66,-0.72 -2.68,-3.46 -1.14,-1.55 -2.87,-3.34 -2.44,-2.52 -5.96,-8 z"
         id="path55" /><path
         fill="#2dc4ed"
         d="m 463.79,392 6.64,7.12 a 1.39,1.03 -71.8 0 1 0.29,0.88 q -0.06,2.25 1.57,3.71 14.16,12.7 18.65,17.85 5.12,5.89 7.55,8.33 0.98,0.99 1.71,2 0.77,1.07 1.59,2.11 -0.9,0.77 -1.86,0.28 A 1.71,0.97 42.1 0 0 499,434.07 q -5.83,0.87 -8.25,1.68 -2.99,1 -2.63,4.43 0.05,0.5 0.44,0.17 2.31,-2.01 1.37,1.98 a 1.15,1.02 -9.3 0 1 -0.57,0.7 q -2.56,1.33 -1.01,3.55 1.27,1.82 -0.13,3.54 -1.95,2.39 -3.91,4.44 -1.06,1.11 -1.54,3.39 -0.43,2.06 -1.25,3.34 -3.71,5.79 -7.49,11.54 -0.23,0.35 -0.27,0.93 l -0.13,2.18 q -0.02,0.43 0.26,0.13 l 2.52,-2.72 a 0.34,0.28 54.6 0 1 0.5,0.13 q 0.35,0.69 1.04,-0.09 a 1.53,1.45 -73.9 0 1 0.8,-0.47 q 2.19,-0.47 2.29,-2.42 a 1.46,1.46 64.7 0 1 0.29,-0.81 q 2.21,-2.99 2.64,-2.72 a 0.52,0.15 33.5 0 0 0.48,0.15 q 3.02,-2.52 3.99,-4.18 2.82,-4.84 6.44,-9.49 0.31,-0.41 0.23,0.1 -0.3,1.8 0.42,0.72 1.37,-2.03 0.79,0.21 -0.06,0.26 -0.23,0.5 -2.11,3.22 -2.34,6.02 -0.26,3.11 -1.26,5.07 a 1.48,1.41 54.5 0 0 -0.13,0.92 q 0.35,1.97 -0.64,3.54 A 0.72,0.47 19.8 0 1 491,470.7 q -0.48,-0.12 -0.81,0.49 -1.81,3.27 -4.9,6.47 -1.89,1.96 -3.88,4.75 -2.33,3.28 -5.51,5.78 -0.33,0.26 -0.58,0.78 -0.49,1.01 -1.19,-0.17 -0.25,-0.42 -0.47,0 l -2.91,5.41 -0.47,0.04 a 0.95,0.81 -75 0 0 -0.7,0.48 q -2.75,4.81 -6.73,8.62 -0.08,0.08 -1.74,2.19 -1.17,1.5 -3.36,1.5 l -19.25,-20 q 0.94,-0.73 0.87,-1.99 a 0.96,0.92 69.3 0 1 0.34,-0.79 q 2.04,-1.69 2.42,-4.32 0.08,-0.52 0.34,-0.91 l 6.2,-9.18 a 1.01,0.84 53.5 0 0 0.05,-0.87 q -0.56,-1.34 -0.78,-3.92 -0.29,-3.31 -3,-3.69 -0.34,-0.04 -3.91,0.71 -2.38,0.5 -4.87,-0.46 -2.76,-1.06 -3.21,-4.11 -0.46,-3.16 -1.1,-6.28 -0.69,-3.33 -0.13,-6.68 a 1.32,1.09 -17.1 0 1 0.5,-0.76 q 1.95,-1.45 1.2,-3.81 a 1.65,1.29 52 0 1 0,-0.96 q 2.51,-6.88 8.25,-11.07 5.23,-3.82 5.28,-3.86 4.76,-3.96 9.59,-7.84 a 1.66,1.54 -12.8 0 0 0.54,-0.79 q 0.52,-1.88 0.77,-3.81 0.03,-0.2 0.52,-2.76 0.56,-2.93 -0.93,-5.64 a 1.83,1.41 39.6 0 1 -0.21,-0.93 q 0.43,-4.22 2.07,-8.11 a 1.52,1.28 52.4 0 0 0.04,-0.93 q -0.46,-1.6 1.44,-0.49 1.86,1.08 3.01,-0.79 z"
         id="path57" /><path
         fill="#789adc"
         d="m 545.25,401.46 q 1.17,0.24 0.27,1.57 -3.27,4.83 -7.64,8.65 -0.36,0.31 -0.55,0.78 -0.98,2.55 -3.23,4.15 -2.66,1.89 -4.39,4.64 -1.61,1.78 -3.35,3.43 -0.09,0.08 -0.98,1.3 -0.7,0.95 -2.13,0.73 z"
         id="path59" /><path
         fill="#3fa2e4"
         d="m 501.79,434 q 4.49,4.54 5.9,6.31 0.53,0.68 1.31,0.4 0.8,1.26 1.75,0 2.05,0.62 3.83,-0.44 a 1.5,1.45 32.8 0 1 0.91,-0.18 q 1.43,0.18 2.6,-0.55 a 1.54,0.9 -45.8 0 1 0.91,-0.25 q 1.79,0.27 -0.12,2.36 -1.04,1.15 0.5,1.32 2.55,0.28 1.95,1.71 -0.1,0.25 -0.88,0.93 -0.31,0.28 -0.51,0.67 a 0.5,0.45 24.7 0 0 0.28,0.64 q 2.13,0.88 1.21,3.38 -0.08,0.22 0.06,0.02 0.69,-0.99 1.98,-0.57 a 0.61,0.59 24.3 0 0 0.7,-0.25 q 1.11,-1.87 3.33,-1.79 a 0.98,0.95 20.1 0 0 0.79,-0.35 l 3.32,-4.05 a 1.33,1.31 -74.9 0 1 0.82,-0.48 l 1.83,-0.28 a 1.56,1.56 -71.7 0 0 0.83,-0.42 q 1.19,-1.17 2.92,-1.31 3.64,-0.31 7.19,-1.14 0.46,-0.11 0.17,0.28 -0.94,1.24 0.74,0.55 a 0.42,0.37 -13.3 0 1 0.57,0.3 q 0.03,0.65 -0.68,1.19 -2.28,1.72 0.5,0.75 l 8.04,-2.82 a 1.26,0.8 -79.3 0 0 0.62,-0.66 q 0.27,-0.62 0.84,-1.06 0.28,2.97 -1.44,5.38 a 1.43,1.22 7.9 0 1 -0.8,0.51 q -2.63,0.62 -4.22,2.74 a 1.7,1.24 -72.4 0 1 -0.76,0.56 l -5.29,1.48 a 1.94,1.78 12 0 0 -0.83,0.49 l -1.01,1.09 a 1.41,0.65 3.2 0 1 -0.84,0.33 l -4.76,0.63 a 1.39,0.61 -59 0 0 -0.78,0.55 q -1.06,1.24 -2.99,1 a 0.88,0.87 86.3 0 0 -0.95,1.09 q 0.67,2.58 -2.09,2.05 a 1.15,0.96 27.8 0 0 -0.88,0.19 q -1.61,1.32 -2.57,3.18 a 0.38,0.37 20 0 0 0.26,0.53 q 1.11,0.24 0.86,1.28 a 0.48,0.43 -77.6 0 0 0.32,0.57 q 3.36,0.75 5.27,0.14 4.97,-1.6 3.4,3.53 a 0.46,0.38 -80.4 0 0 0.34,0.58 l 2.27,-0.01 a 0.57,0.36 1.7 0 1 0.58,0.39 l -0.09,0.97 q -0.79,1.2 -1.71,2.31 -0.98,1.19 1.51,0.6 0.5,-0.12 0.3,0.36 -1.5,3.49 -5.31,2.92 a 0.86,0.78 -65.4 0 0 -0.77,0.33 q -1.49,1.89 -4.01,1.81 a 1.53,0.92 16 0 0 -0.93,0.25 q -0.45,0.37 -0.71,0.93 a 0.74,0.73 -75.9 0 1 -0.69,0.42 l -3.62,-0.2 a 0.35,0.35 -79.9 0 1 -0.32,-0.46 q 0.52,-1.57 -1.45,-0.96 -0.41,0.13 -0.27,-0.29 l 1.3,-3.92 q 0.22,-0.65 -0.38,-0.49 l -0.94,0.25 a 1.16,0.54 -75.7 0 0 -0.58,0.71 q -0.46,1.22 -1.65,1.04 -1.55,-0.24 -1.7,-0.23 -1.26,0.04 -2.51,0.08 a 0.34,0.33 -80.6 0 1 -0.32,-0.46 q 1.73,-4.64 4.88,-9.08 0.85,-1.21 -0.62,-1.19 -1.93,0.01 -1.72,-1.16 a 0.54,0.46 -77.7 0 0 -0.32,-0.6 l -5.16,-1.48 a 0.78,0.77 27.5 0 0 -0.81,0.25 q -1.96,2.36 -2.55,3.49 -0.47,0.87 -1.18,1.03 a 1.61,0.64 -3.6 0 0 -0.85,0.4 q -6.46,7.15 -11.98,15.06 -0.48,0.7 -1.21,0.51 a 0.9,0.62 22 0 0 -0.81,0.18 l -4.17,5.09 q -0.35,0.42 0.2,0.34 3.08,-0.47 1.82,0.66 -0.52,0.46 -0.77,0.81 -3.27,4.66 -8.43,8.04 -2.05,1.35 -3.97,3.67 -0.05,0.05 -0.45,0.72 -0.41,0.7 -1.39,0.59 -2.16,-0.05 -0.88,-1.57 a 0.44,0.44 35.8 0 0 -0.11,-0.66 q -1.53,-0.95 -2.24,0.29 a 1.39,0.78 -71.9 0 1 -0.68,0.63 q -1.74,0.48 -0.34,-1.98 0.54,-0.94 0.25,-2.29 l 2.91,-5.41 q 0.22,-0.42 0.47,0 0.7,1.18 1.19,0.17 0.25,-0.52 0.58,-0.78 3.18,-2.5 5.51,-5.78 1.99,-2.79 3.88,-4.75 3.09,-3.2 4.9,-6.47 0.33,-0.61 0.81,-0.49 a 0.72,0.47 19.8 0 0 0.72,-0.17 q 0.99,-1.57 0.64,-3.54 a 1.48,1.41 54.5 0 1 0.13,-0.92 q 1,-1.96 1.26,-5.07 0.23,-2.8 2.34,-6.02 0.17,-0.24 0.23,-0.5 0.58,-2.24 -0.79,-0.21 -0.72,1.08 -0.42,-0.72 0.08,-0.51 -0.23,-0.1 -3.62,4.65 -6.44,9.49 -0.97,1.66 -3.99,4.18 a 0.52,0.15 33.5 0 1 -0.48,-0.15 q -0.43,-0.27 -2.64,2.72 a 1.46,1.46 64.7 0 0 -0.29,0.81 q -0.1,1.95 -2.29,2.42 a 1.53,1.45 -73.9 0 0 -0.8,0.47 q -0.69,0.78 -1.04,0.09 a 0.34,0.28 54.6 0 0 -0.5,-0.13 l -2.52,2.72 q -0.28,0.3 -0.26,-0.13 l 0.13,-2.18 q 0.04,-0.58 0.27,-0.93 3.78,-5.75 7.49,-11.54 0.82,-1.28 1.25,-3.34 0.48,-2.28 1.54,-3.39 1.96,-2.05 3.91,-4.44 1.4,-1.72 0.13,-3.54 -1.55,-2.22 1.01,-3.55 a 1.15,1.02 -9.3 0 0 0.57,-0.7 q 0.94,-3.99 -1.37,-1.98 -0.39,0.33 -0.44,-0.17 -0.36,-3.43 2.63,-4.43 2.42,-0.81 8.25,-1.68 a 1.71,0.97 42.1 0 1 0.93,0.21 q 0.96,0.49 1.86,-0.28 z"
         id="path61" /><path
         fill="#3291dd"
         d="m 561.75,461.96 q -0.89,0.57 -1.36,1.52 a 0.7,0.66 16.4 0 1 -0.68,0.35 q -1.32,-0.14 -2.02,1.61 -0.25,0.61 -2.14,3.16 a 1.11,0.86 12.8 0 1 -0.79,0.37 l -2.82,0.14 a 1.02,0.75 -72.1 0 0 -0.72,0.52 q -0.86,1.57 -2.35,1.43 a 0.94,0.93 14.4 0 0 -0.94,0.55 q -1.18,2.72 -0.23,2.96 a 0.35,0.3 20 0 1 0.25,0.44 l -0.4,0.73 a 0.29,0.28 13.6 0 0 0.26,0.41 q 1.44,-0.02 0.53,1.43 -0.92,1.47 -1.29,3.16 a 0.41,0.3 -73.9 0 0 0.16,0.43 l 0.24,0.11 a 0.35,0.26 28 0 1 0.2,0.43 l -3.18,4.56 a 1.04,0.93 -71.3 0 1 -0.78,0.44 l -1.19,0.04 a 0.63,0.6 -84.6 0 0 -0.58,0.5 q -0.55,2.91 -3.42,2.58 a 0.76,0.51 9.9 0 0 -0.76,0.34 l -0.16,0.51 a 0.47,0.38 6.7 0 0 0.48,0.49 q 1.63,0 0.85,1.19 -0.28,0.43 -0.51,1.01 -0.48,1.24 -1.84,1.23 a 0.95,0.68 9.5 0 0 -0.78,0.38 l -2.42,4.73 a 0.72,0.7 -74.9 0 1 -0.66,0.39 l -4.51,-0.2 a 1.03,0.68 -66.2 0 0 -0.75,0.48 q -0.68,1.05 -1.94,1.37 -1.28,0.33 -1,3 0.11,1.04 1.25,0.75 1.89,-0.49 0.44,0.94 -1.63,1.6 0.39,1.62 a 0.84,0.81 -75 0 1 0.69,1.24 l -7.35,13.62 a 0.79,0.72 14.9 0 1 -0.72,0.37 l -3.89,-0.27 a 0.78,0.64 -75.6 0 0 -0.68,0.5 l -2.76,6.95 a 0.58,0.53 -70.2 0 1 -0.67,0.36 l -1.7,-0.54 q 1.04,-3.14 -2.28,-2.34 a 0.57,0.54 -6.2 0 1 -0.7,-0.53 l 0.11,-4.61 a 0.48,0.4 87.6 0 0 -0.45,-0.5 l -5.44,0.77 a 0.45,0.41 -2.5 0 1 -0.52,-0.43 q 0.19,-2.46 1.5,-3.98 a 1.25,0.76 11 0 1 0.84,-0.31 q 1.05,-0.04 1.63,-1.17 1.5,-2.96 1.62,-3.88 0.28,-2.1 2.77,-2.05 a 1.38,1.35 -68.2 0 0 1.04,-0.46 q 2.94,-3.27 3.5,-6.99 a 0.38,0.34 0.8 0 0 -0.42,-0.39 l -2.91,0.34 q -0.87,0.1 -0.4,-0.67 l 5.58,-8.92 a 0.32,0.31 -70.1 0 0 -0.22,-0.49 q -2.18,-0.28 -4.27,0.4 a 1.47,0.89 -74 0 0 -0.68,0.63 q -0.43,0.74 -1.29,0.84 -4.88,0.61 -9.59,1.99 a 1.1,1.02 -85.5 0 0 -0.66,0.61 q -1.5,3.6 -5.51,3.39 a 0.81,0.77 -72.7 0 0 -0.73,0.41 q -1.02,1.73 -3.02,2 a 1.04,0.79 4.3 0 0 -0.74,0.48 l -1.63,3.3 a 0.76,0.74 13.6 0 1 -0.69,0.41 q -1.07,-0.01 -1.67,0.75 -0.74,0.93 -0.81,0.99 -0.96,0.87 -2.05,1.59 -0.86,0.57 -0.62,-0.43 a 0.42,0.39 -80.2 0 0 -0.34,-0.52 l -3.21,-0.23 a 1.35,1.2 -59.2 0 0 -0.89,0.28 q -4.1,3.17 -1.36,-1.39 a 0.46,0.41 -64.7 0 0 -0.19,-0.65 q -0.3,-0.1 -0.62,-0.09 -0.36,0.01 -0.75,0.34 -1.64,1.39 -0.12,-1.22 a 0.64,0.46 -51.5 0 0 0.03,-0.64 q -0.12,-0.16 -0.3,-0.25 a 0.42,0.37 26.8 0 1 -0.21,-0.53 q 0.4,-0.76 -0.26,-0.91 a 0.42,0.34 18.5 0 1 -0.32,-0.5 l 2.5,-4.94 q 0.98,0.11 1.39,-0.59 0.4,-0.67 0.45,-0.72 1.92,-2.32 3.97,-3.67 5.16,-3.38 8.43,-8.04 0.25,-0.35 0.77,-0.81 1.26,-1.13 -1.82,-0.66 -0.55,0.08 -0.2,-0.34 l 4.17,-5.09 a 0.9,0.62 22 0 1 0.81,-0.18 q 0.73,0.19 1.21,-0.51 5.52,-7.91 11.98,-15.06 a 1.61,0.64 -3.6 0 1 0.85,-0.4 q 0.71,-0.16 1.18,-1.03 0.59,-1.13 2.55,-3.49 a 0.78,0.77 27.5 0 1 0.81,-0.25 l 5.16,1.48 a 0.54,0.46 -77.7 0 1 0.32,0.6 q -0.21,1.17 1.72,1.16 1.47,-0.02 0.62,1.19 -3.15,4.44 -4.88,9.08 a 0.34,0.33 -80.6 0 0 0.32,0.46 q 1.25,-0.04 2.51,-0.08 0.15,-0.01 1.7,0.23 1.19,0.18 1.65,-1.04 a 1.16,0.54 -75.7 0 1 0.58,-0.71 l 0.94,-0.25 q 0.6,-0.16 0.38,0.49 l -1.3,3.92 q -0.14,0.42 0.27,0.29 1.97,-0.61 1.45,0.96 a 0.35,0.35 -79.9 0 0 0.32,0.46 l 3.62,0.2 a 0.74,0.73 -75.9 0 0 0.69,-0.42 q 0.26,-0.56 0.71,-0.93 a 1.53,0.92 16 0 1 0.93,-0.25 q 2.52,0.08 4.01,-1.81 a 0.86,0.78 -65.4 0 1 0.77,-0.33 q 3.81,0.57 5.31,-2.92 0.2,-0.48 -0.3,-0.36 -2.49,0.59 -1.51,-0.6 0.92,-1.11 1.71,-2.31 l 3.01,-0.37 a 1.03,0.78 -75.7 0 0 0.69,-0.55 q 0.82,-1.65 2.8,-1.58 a 1.11,0.96 19.4 0 0 0.83,-0.33 q 1.83,-2.09 3.49,-4.31 0.81,-1.1 2.12,-1.33 a 1.81,0.71 0 0 0 0.89,-0.35 q 1.53,-1.34 0.87,-4.02 a 0.33,0.31 -34.9 0 1 0.06,-0.28 q 0.72,-0.92 -0.82,-0.82 -0.71,0.05 -0.31,-0.55 l 1.85,-2.8 a 1.47,1.34 -80.4 0 1 0.74,-0.58 q 2.88,-0.94 5.9,-1.3 0.06,0 0.72,-0.22 0.51,-0.16 0.51,0.61 0,0.47 0.25,0.1 l 1.93,-2.8 a 1.36,1.33 -78.9 0 1 0.77,-0.53 l 5.12,-1.24 q 1.74,-0.42 0.66,1.07 l -1.78,2.47 q -0.24,0.32 0.26,0.34 l 0.48,0.02 a 0.55,0.45 -85 0 1 0.41,0.61 q -0.4,3.3 -2.17,6.1 a 1.09,1.01 11.5 0 1 -0.77,0.47 l -3.46,0.44 a 0.79,0.76 -85.7 0 0 -0.63,0.56 z"
         id="path63" /><path
         fill="#2a4aaf"
         d="m 652.96,446.5 q 0.12,0.32 0.54,0.29 -1.11,1.42 -1.09,3.15 a 1.62,0.84 76.6 0 1 -0.23,0.93 l -1.93,2.63 q -1.04,1.42 0.75,1.25 2.12,-0.2 1.55,1.95 -0.91,3.4 1.04,6.22 0.92,1.32 1.12,2.85 0.3,2.17 0.54,2.89 2.83,8.48 2.29,17.48 0,0.07 -0.14,1.22 -0.27,2.24 1.14,3.57 a 2.56,2.53 -73.7 0 1 0.75,1.39 q 0.97,5.45 -0.82,9.47 -0.21,0.47 -0.18,0.95 0.26,3.56 -0.04,12.26 -0.14,4.13 0.82,17.12 0.19,2.56 1.43,4.41 1.33,1.99 2.97,3.75 0.93,0.99 2.23,1.31 a 0.93,0.7 -57.5 0 0 0.8,-0.3 q 0.89,-0.96 1.54,0.46 l -35.01,38.57 a 1.06,1.01 -65.8 0 1 -0.85,0.35 q -1.39,-0.1 -2.38,-0.98 -0.78,-0.7 -0.93,-2.18 -0.47,-4.65 -0.37,-7.51 0.39,-10.75 0.33,-21.5 -0.21,-36.13 -0.33,-73.49 a 4.02,3.63 68.1 0 1 0.96,-2.62 z"
         id="path65" /><path
         fill="#3a7bcf"
         d="m 592.79,478 q -13.63,14.95 -22.73,26.06 -0.8,0.98 -1.31,2.9 -1.58,-2.25 -3.5,-2.46 -3.87,-0.43 -5.5,-0.92 a 0.51,0.4 20.1 0 1 -0.37,-0.6 l 0.21,-0.43 a 0.58,0.46 -58.8 0 0 -0.08,-0.63 q -0.63,-0.54 0.12,-1.33 a 0.44,0.41 -50.2 0 0 -0.03,-0.64 l -2.03,-1.47 a 0.84,0.82 37.5 0 1 -0.17,-1.19 q 1.07,-1.31 -0.38,-1.58 a 0.43,0.43 16.3 0 1 -0.32,-0.58 q 1.01,-2.59 -1.52,-2.7 -1.38,-0.06 -0.79,-1.57 a 0.88,0.81 12.1 0 0 -0.79,-1.11 l -2.31,-0.19 a 0.51,0.46 -80.8 0 1 -0.39,-0.61 l 0.49,-2.47 a 0.74,0.64 0.5 0 1 0.61,-0.52 q 2.38,-0.3 3.44,-2.58 0.9,-1.92 1.71,-3.88 0.57,-1.39 1.9,-0.95 a 0.61,0.56 25.2 0 0 0.71,-0.22 l 0.73,-1.16 a 0.68,0.63 21.7 0 1 0.73,-0.28 q 1.95,0.45 3.11,-1.28 a 0.21,0.17 31.5 0 0 -0.09,-0.26 l -0.18,-0.09 a 0.51,0.41 -62.5 0 1 -0.12,-0.62 l 1.86,-3.94 a 0.77,0.75 13.3 0 1 0.7,-0.42 q 3.79,0.09 4.25,-3.99 1.61,0.81 2.66,-0.38 0.96,-1.08 2.05,-0.08 a 0.56,0.49 -61.5 0 1 0.12,0.54 q -0.34,1.12 0.52,0.17 a 0.97,0.97 36.1 0 1 1.22,-0.19 q 2,1.17 2.59,-0.36 a 1.74,1.73 -72.6 0 1 2.04,-1.07 q 2.07,0.52 2.82,-0.94 2.73,-5.35 6.48,-10.03 a 1.72,1.6 -77.9 0 1 0.79,-0.55 q 2.12,-0.65 4.25,-0.23 2.17,0.43 2.47,0.47 1.01,0.12 2.01,0.28 a 0.41,0.4 -75.3 0 1 0.3,0.54 q -0.95,2.64 0.99,3.98 2.46,1.69 2.72,3.87 a 1.28,1.07 -32.7 0 1 -0.28,0.89 q -6.41,8.03 -11.19,12.86 -0.99,1 -0.52,1.94 z"
         id="path67" /><path
         fill="#1f80d4"
         d="m 561.75,461.96 2.59,0.03 q 0.54,0.01 0.22,0.43 -1.26,1.68 0.79,1.44 0.93,-0.11 1.3,-0.06 1.7,0.27 0.27,1.68 -0.35,0.35 0.13,0.4 l 3.7,0.41 q -0.46,4.08 -4.25,3.99 a 0.77,0.75 13.3 0 0 -0.7,0.42 l -1.86,3.94 a 0.51,0.41 -62.5 0 0 0.12,0.62 l 0.18,0.09 a 0.21,0.17 31.5 0 1 0.09,0.26 q -1.16,1.73 -3.11,1.28 a 0.68,0.63 21.7 0 0 -0.73,0.28 l -0.73,1.16 a 0.61,0.56 25.2 0 1 -0.71,0.22 q -1.33,-0.44 -1.9,0.95 -0.81,1.96 -1.71,3.88 -1.06,2.28 -3.44,2.58 a 0.74,0.64 0.5 0 0 -0.61,0.52 l -0.49,2.47 a 0.51,0.46 -80.8 0 0 0.39,0.61 l 2.31,0.19 a 0.88,0.81 12.1 0 1 0.79,1.11 q -0.59,1.51 0.79,1.57 2.53,0.11 1.52,2.7 a 0.43,0.43 16.3 0 0 0.32,0.58 q 1.45,0.27 0.38,1.58 a 0.84,0.82 37.5 0 0 0.17,1.19 l 2.03,1.47 a 0.44,0.41 -50.2 0 1 0.03,0.64 q -0.75,0.79 -0.12,1.33 a 0.58,0.46 -58.8 0 1 0.08,0.63 l -0.21,0.43 a 0.51,0.4 20.1 0 0 0.37,0.6 q 1.63,0.49 5.5,0.92 1.92,0.21 3.5,2.46 16.77,0.97 29,0.54 5.74,-0.2 8.25,0.04 -1.12,2.8 -3.2,4.9 -2.31,2.34 -2.34,2.37 -19.85,22.46 -39.71,44.9 -11.14,12.39 -22.06,24.98 -1.93,2.22 -6.44,6.6 -1.09,-0.76 -1.5,0.46 a 1.63,1.4 23.1 0 1 -2.19,0.69 q -1.25,-0.63 -2.58,-0.33 a 1.46,0.88 -26.6 0 1 -0.93,-0.07 l -10.82,-6.07 a 0.36,0.33 -48.5 0 1 -0.01,-0.57 l 1.59,-1.26 a 0.44,0.41 46.4 0 0 -0.01,-0.65 q -1.08,-0.94 -3.36,-3.43 -1.73,-1.88 0.12,-3.06 a 0.62,0.56 -28.4 0 0 0.25,-0.71 q -5.04,-12.3 -2.84,-26.5 a 1.28,1.25 26.4 0 0 -0.39,-1.11 l -2.21,-2.08 a 1.05,1.03 -66.9 0 1 -0.33,-0.85 q 0.68,-7.82 2.46,-15.46 l 1.7,0.54 a 0.58,0.53 -70.2 0 0 0.67,-0.36 l 2.76,-6.95 a 0.78,0.64 -75.6 0 1 0.68,-0.5 l 3.89,0.27 a 0.79,0.72 14.9 0 0 0.72,-0.37 l 7.35,-13.62 a 0.84,0.81 -75 0 0 -0.69,-1.24 q -2.02,-0.02 -0.39,-1.62 1.45,-1.43 -0.44,-0.94 -1.14,0.29 -1.25,-0.75 -0.28,-2.67 1,-3 1.26,-0.32 1.94,-1.37 a 1.03,0.68 -66.2 0 1 0.75,-0.48 l 4.51,0.2 a 0.72,0.7 -74.9 0 0 0.66,-0.39 l 2.42,-4.73 a 0.95,0.68 9.5 0 1 0.78,-0.38 q 1.36,0.01 1.84,-1.23 0.23,-0.58 0.51,-1.01 0.78,-1.19 -0.85,-1.19 a 0.47,0.38 6.7 0 1 -0.48,-0.49 l 0.16,-0.51 a 0.76,0.51 9.9 0 1 0.76,-0.34 q 2.87,0.33 3.42,-2.58 a 0.63,0.6 -84.6 0 1 0.58,-0.5 l 1.19,-0.04 a 1.04,0.93 -71.3 0 0 0.78,-0.44 l 3.18,-4.56 a 0.35,0.26 28 0 0 -0.2,-0.43 l -0.24,-0.11 a 0.41,0.3 -73.9 0 1 -0.16,-0.43 q 0.37,-1.69 1.29,-3.16 0.91,-1.45 -0.53,-1.43 a 0.29,0.28 13.6 0 1 -0.26,-0.41 l 0.4,-0.73 a 0.35,0.3 20 0 0 -0.25,-0.44 q -0.95,-0.24 0.23,-2.96 a 0.94,0.93 14.4 0 1 0.94,-0.55 q 1.49,0.14 2.35,-1.43 a 1.02,0.75 -72.1 0 1 0.72,-0.52 l 2.82,-0.14 a 1.11,0.86 12.8 0 0 0.79,-0.37 q 1.89,-2.55 2.14,-3.16 0.7,-1.75 2.02,-1.61 a 0.7,0.66 16.4 0 0 0.68,-0.35 q 0.47,-0.95 1.36,-1.52 z"
         id="path69" /><path
         fill="#01a0c0"
         d="m 284.75,503.96 q -2.22,0.26 -1.23,1.82 a 1.76,1 8.3 0 0 0.75,0.58 q 0.99,0.44 1.42,1.2 1.39,2.48 3.1,4.18 1.67,1.66 1.72,1.71 10.78,11.73 13.24,14.8 2.92,3.65 4.7,5.7 1.06,1.21 4.46,3.64 2.58,1.85 4.55,4.41 -0.67,-0.04 -1.13,0.37 a 0.36,0.33 -35.4 0 1 -0.53,-0.07 q -0.33,-0.58 -0.66,-0.04 a 1.26,1.01 -77.1 0 1 -0.67,0.53 q -1.77,0.52 -0.24,2.07 0.54,0.54 0.98,1.15 3.27,4.52 6.49,6.65 a 1.68,1.67 -69.5 0 1 0.74,1.64 q -0.32,2.2 0.88,4.09 0.09,0.15 1.03,1.03 0.69,0.64 0.41,1.56 a 1.46,0.95 -57.5 0 0 0.01,0.91 q 1.6,3.48 3.06,7.03 1.55,3.79 1.76,7.41 0.34,5.93 -0.44,11.81 -0.28,2.12 -1.29,5.09 -0.85,2.51 -1.53,5.07 -0.9,3.34 -2.52,7 -1.76,3.97 -2.86,8.17 -0.43,1.67 -1.31,2.94 -0.94,1.34 -1.89,2.68 -1.47,2.03 -2.45,4.2 -2.76,6.11 -5.55,12.21 -1.03,2.25 -7.01,11 -1.82,2.68 -3.05,6.03 -1.19,3.25 -2.55,6.34 -0.23,0.55 -0.54,1.05 -2.45,4.04 -5.58,7.18 a 0.56,0.45 -45.1 0 1 -0.72,0.08 q -0.18,-0.18 -0.25,-0.44 a 0.42,0.36 71.2 0 0 -0.51,-0.3 q -3.86,1.72 -4.98,5.77 a 1.33,1.22 -10.1 0 1 -0.56,0.73 q -2.63,1.63 -2.58,4.76 a 1.4,1.38 -26.2 0 1 -0.3,0.86 l -4.88,5.98 q -0.28,0.35 -0.75,0.6 -1.39,0.73 -1.63,2.3 -0.06,0.37 -0.14,0 l -0.43,-1.94 q -0.62,-65.25 -0.12,-130.5 0.06,-8.01 -0.05,-19.99 -0.18,-21.85 0.38,-43.57 0.01,-0.67 0.44,-0.17 z"
         id="path71" /><path
         fill="#3d279f"
         d="m 746.96,539 q -0.37,-0.7 -0.21,-1.5 0.51,-2.59 -1.23,-2 a 1,0.91 -35.6 0 1 -0.85,-0.1 q -2.19,-1.48 -3.86,0.41 -0.75,0.86 -1.01,0.24 a 0.57,0.46 69.6 0 0 -0.59,-0.35 q -7.98,2.33 -16.21,3.55 -1.86,0.28 -4.55,1.19 -2.82,0.97 -4.53,1.12 -3.85,0.34 -7.68,-0.45 a 1.83,1.78 -47.9 0 0 -0.95,0.06 q -3.85,1.29 -2.83,-2.42 l 42.88,-45.8 q 1.66,-1.78 1.66,0.66 z"
         id="path73" /><path
         fill="#1b9ae0"
         d="m 509.5,530.29 q -1.78,7.64 -2.46,15.46 a 1.05,1.03 -66.9 0 0 0.33,0.85 l 2.21,2.08 a 1.28,1.25 26.4 0 1 0.39,1.11 q -2.2,14.2 2.84,26.5 a 0.62,0.56 -28.4 0 1 -0.25,0.71 q -1.85,1.18 -0.12,3.06 2.28,2.49 3.36,3.43 a 0.44,0.41 46.4 0 1 0.01,0.65 l -1.59,1.26 a 0.36,0.33 -48.5 0 0 0.01,0.57 l 10.82,6.07 a 1.46,0.88 -26.6 0 0 0.93,0.07 q 1.33,-0.3 2.58,0.33 a 1.63,1.4 23.1 0 0 2.19,-0.69 q 0.41,-1.22 1.5,-0.46 -8.22,9.85 -17.06,19.15 -1.71,1.79 -2.73,2.06 -36.38,-38.73 -71.81,-78.32 -0.03,-0.04 -6.74,-7.43 -7.9,-8.69 -15.06,-17.87 -0.68,-0.87 0.43,-0.88 10.52,-0.09 20.88,-0.37 2.93,-0.08 8.66,0.18 4.34,0.21 8.7,-0.05 0.31,-0.01 0.41,-0.14 0.19,-0.22 -0.18,-0.58 2.19,0 3.36,-1.5 1.66,-2.11 1.74,-2.19 3.98,-3.81 6.73,-8.62 a 0.95,0.81 -75 0 1 0.7,-0.48 l 0.47,-0.04 q 0.29,1.35 -0.25,2.29 -1.4,2.46 0.34,1.98 a 1.39,0.78 -71.9 0 0 0.68,-0.63 q 0.71,-1.24 2.24,-0.29 a 0.44,0.44 35.8 0 1 0.11,0.66 q -1.28,1.52 0.88,1.57 l -2.5,4.94 a 0.42,0.34 18.5 0 0 0.32,0.5 q 0.66,0.15 0.26,0.91 a 0.42,0.37 26.8 0 0 0.21,0.53 q 0.18,0.09 0.3,0.25 a 0.64,0.46 -51.5 0 1 -0.03,0.64 q -1.52,2.61 0.12,1.22 0.39,-0.33 0.75,-0.34 0.32,-0.01 0.62,0.09 a 0.46,0.41 -64.7 0 1 0.19,0.65 q -2.74,4.56 1.36,1.39 a 1.35,1.2 -59.2 0 1 0.89,-0.28 l 3.21,0.23 a 0.42,0.39 -80.2 0 1 0.34,0.52 q -0.24,1 0.62,0.43 1.09,-0.72 2.05,-1.59 0.07,-0.06 0.81,-0.99 0.6,-0.76 1.67,-0.75 a 0.76,0.74 13.6 0 0 0.69,-0.41 l 1.63,-3.3 a 1.04,0.79 4.3 0 1 0.74,-0.48 q 2,-0.27 3.02,-2 a 0.81,0.77 -72.7 0 1 0.73,-0.41 q 4.01,0.21 5.51,-3.39 a 1.1,1.02 -85.5 0 1 0.66,-0.61 q 4.71,-1.38 9.59,-1.99 0.86,-0.1 1.29,-0.84 a 1.47,0.89 -74 0 1 0.68,-0.63 q 2.09,-0.68 4.27,-0.4 a 0.32,0.31 -70.1 0 1 0.22,0.49 l -5.58,8.92 q -0.47,0.77 0.4,0.67 l 2.91,-0.34 a 0.38,0.34 0.8 0 1 0.42,0.39 q -0.56,3.72 -3.5,6.99 a 1.38,1.35 -68.2 0 1 -1.04,0.46 q -2.49,-0.05 -2.77,2.05 -0.12,0.92 -1.62,3.88 -0.58,1.13 -1.63,1.17 a 1.25,0.76 11 0 0 -0.84,0.31 q -1.31,1.52 -1.5,3.98 a 0.45,0.41 -2.5 0 0 0.52,0.43 l 5.44,-0.77 a 0.48,0.4 87.6 0 1 0.45,0.5 l -0.11,4.61 a 0.57,0.54 -6.2 0 0 0.7,0.53 q 3.32,-0.8 2.28,2.34 z"
         id="path75" /><path
         fill="#22bfd0"
         d="m 284.75,503.96 q 10.88,12.37 22.16,24.38 33.25,35.37 66.4,70.85 9.23,9.87 12.84,13.58 1.76,1.8 2.05,3.65 0.39,2.51 -0.24,5.08 -0.52,0.08 -0.46,1 0.33,5.36 -0.46,13.5 l -0.27,-20.24 a 1.23,1.18 23 0 0 -0.37,-0.86 l -4.9,-4.69 q -10.57,-12.69 -18.19,-19.77 -8.41,-7.82 -13.85,-14.16 -2.37,-2.77 -4.6,-4.9 -2.43,-2.32 -4.78,-4.73 -0.08,-0.07 -4.34,-4.11 -2.87,-2.71 -5.43,-6.35 -5.21,-7.43 -12.85,-14.19 -1.97,-2.56 -4.55,-4.41 -3.4,-2.43 -4.46,-3.64 -1.78,-2.05 -4.7,-5.7 -2.46,-3.07 -13.24,-14.8 -0.05,-0.05 -1.72,-1.71 -1.71,-1.7 -3.1,-4.18 -0.43,-0.76 -1.42,-1.2 a 1.76,1 8.3 0 1 -0.75,-0.58 q -0.99,-1.56 1.23,-1.82 z"
         id="path77" /><path
         fill="#59eaeb"
         d="m 561.46,559.75 -0.71,-0.04 q 19.86,-22.44 39.71,-44.9 0.03,-0.03 2.34,-2.37 2.08,-2.1 3.2,-4.9 2.84,-0.81 1.06,1.03 -0.54,0.56 -0.71,0.75 -22.25,25.4 -44.89,50.43 z"
         id="path79" /><path
         fill="#572ca4"
         d="m 746.96,539 -0.25,66 q -0.37,-6.12 -0.32,-12.25 0.01,-1.71 -0.37,-0.58 a 0.16,0.15 33 0 1 -0.26,0.05 l -0.72,-0.81 a 1.15,0.95 -18.5 0 0 -0.85,-0.33 q -10.94,0.28 -21.83,-0.55 -4.37,-0.33 -15.27,-2.04 -9.46,-1.49 -15.34,-1.49 -7.05,0.01 -21.34,2.46 -0.52,0.09 -1.2,-0.08 -0.61,-0.14 -1.23,-0.15 -0.5,0 -1.72,0.52 -2.02,0.85 -4.39,-0.52 a 2.86,2.86 54.6 0 0 -1.94,-0.33 q -2.44,0.44 -2.22,-0.65 21.9,-25.18 44.75,-49.5 -1.02,3.71 2.83,2.42 a 1.83,1.78 -47.9 0 1 0.95,-0.06 q 3.83,0.79 7.68,0.45 1.71,-0.15 4.53,-1.12 2.69,-0.91 4.55,-1.19 8.23,-1.22 16.21,-3.55 a 0.57,0.46 69.6 0 1 0.59,0.35 q 0.26,0.62 1.01,-0.24 1.67,-1.89 3.86,-0.41 a 1,0.91 -35.6 0 0 0.85,0.1 q 1.74,-0.59 1.23,2 -0.16,0.8 0.21,1.5 z"
         id="path81" /><path
         fill="#01b8ce"
         d="m 317.46,542 q 7.64,6.76 12.85,14.19 2.56,3.64 5.43,6.35 4.26,4.04 4.34,4.11 2.35,2.41 4.78,4.73 2.23,2.13 4.6,4.9 5.44,6.34 13.85,14.16 7.62,7.08 18.19,19.77 -1.27,0.65 -2,1.8 -1.02,1.61 -1.49,2.1 -1.64,1.74 -2.91,3.76 -1.45,2.31 -2.93,3.64 -2.88,2.59 -5.67,5.27 -0.05,0.05 -2,1.64 -1.25,1.02 -2.69,2.89 -3.55,4.65 -18.25,22.5 -5.26,6.39 -6.87,9.38 -1.39,2.57 -9.5,12.75 -0.96,1.2 -1.3,2.09 -0.2,0.51 -0.52,0.8 -2.84,2.49 -4.86,5.7 -3.09,4.93 -7.24,9 -6.5,6.37 -12.15,13.52 a 0.94,0.16 83.3 0 0 -0.04,0.79 q 0.03,0.29 -0.33,0.66 -1.97,2.06 -4.38,5.57 -0.89,1.3 -1.43,3.68 -1.2,5.25 -6.19,8.04 -4.25,-3.93 -6.79,-9.1 -0.18,-0.36 -0.19,-0.94 -0.04,-1.65 -1.58,-1.8 a 0.56,0.56 1.2 0 1 -0.5,-0.52 q -0.12,-2.14 -2.4,-2.68 -4.58,-12.19 -4,-25.25 l 0.43,1.94 q 0.08,0.37 0.14,0 0.24,-1.57 1.63,-2.3 0.47,-0.25 0.75,-0.6 l 4.88,-5.98 a 1.4,1.38 -26.2 0 0 0.3,-0.86 q -0.05,-3.13 2.58,-4.76 a 1.33,1.22 -10.1 0 0 0.56,-0.73 q 1.12,-4.05 4.98,-5.77 a 0.42,0.36 71.2 0 1 0.51,0.3 q 0.07,0.26 0.25,0.44 a 0.56,0.45 -45.1 0 0 0.72,-0.08 q 3.13,-3.14 5.58,-7.18 0.31,-0.5 0.54,-1.05 1.36,-3.09 2.55,-6.34 1.23,-3.35 3.05,-6.03 5.98,-8.75 7.01,-11 2.79,-6.1 5.55,-12.21 0.98,-2.17 2.45,-4.2 0.95,-1.34 1.89,-2.68 0.88,-1.27 1.31,-2.94 1.1,-4.2 2.86,-8.17 1.62,-3.66 2.52,-7 0.68,-2.56 1.53,-5.07 1.01,-2.97 1.29,-5.09 0.78,-5.88 0.44,-11.81 -0.21,-3.62 -1.76,-7.41 -1.46,-3.55 -3.06,-7.03 a 1.46,0.95 -57.5 0 1 -0.01,-0.91 q 0.28,-0.92 -0.41,-1.56 -0.94,-0.88 -1.03,-1.03 -1.2,-1.89 -0.88,-4.09 a 1.68,1.67 -69.5 0 0 -0.74,-1.64 q -3.22,-2.13 -6.49,-6.65 -0.44,-0.61 -0.98,-1.15 -1.53,-1.55 0.24,-2.07 a 1.26,1.01 -77.1 0 0 0.67,-0.53 q 0.33,-0.54 0.66,0.04 a 0.36,0.33 -35.4 0 0 0.53,0.07 q 0.46,-0.41 1.13,-0.37 z"
         id="path83" /><path
         fill="#59eaeb"
         d="m 560.75,559.71 0.71,0.04 q -20.56,23.84 -35.46,40 -7.2,7.81 -11.69,13.6 a 0.66,0.58 -56.5 0 1 -0.77,0.21 q -0.67,-0.35 -1.08,-1.06 1.02,-0.27 2.73,-2.06 8.84,-9.3 17.06,-19.15 4.51,-4.38 6.44,-6.6 10.92,-12.59 22.06,-24.98 z"
         id="path85" /><path
         fill="#712e9d"
         d="m 746.71,605 q 0.07,29.25 0.04,58.5 -0.01,7.77 -0.71,15.5 -1.02,-0.63 -1.04,0.5 -0.07,4.46 -0.15,5.93 -0.01,0.12 0,0 0.03,-1.21 -0.39,-2.28 -0.25,-0.64 -1.7,-2.09 -1.46,-1.45 -1.94,-3.58 -0.52,-2.24 -1.63,-4.24 a 1.34,0.91 0.5 0 0 -0.75,-0.52 q -1.14,-0.3 -1.6,-1.47 a 0.35,0.28 67.5 0 1 0.12,-0.42 l 0.24,-0.11 a 0.52,0.34 -22.8 0 0 0.34,-0.5 q -0.84,-2.43 -3.11,-3.54 a 0.26,0.23 -65 0 0 -0.33,0.14 l -0.1,0.25 a 0.41,0.35 33.4 0 1 -0.61,0.08 q -1.43,-1.28 -3.37,-1.39 -0.7,-0.04 -0.99,-0.24 -0.56,-0.37 -0.43,-1.05 0.09,-0.52 -0.04,-0.93 l -1.45,-4.56 a 1.13,0.93 88.7 0 0 -0.58,-0.67 q -2.75,-1.14 -5.49,-2.31 -0.37,-0.16 -0.38,0.31 -0.01,0.35 -0.3,0.17 -7.89,-4.94 -15.42,-10.42 -2.65,-1.92 -7.05,-3.58 -4.29,-1.61 -6.74,-2.79 -3.29,-1.58 -6.63,-3.05 a 1.47,1.24 85.1 0 1 -0.65,-0.65 q -0.83,-1.68 -2.15,-0.85 a 0.65,0.58 -38.3 0 1 -0.76,-0.05 q -3.98,-3.8 -9.41,-4.82 -0.48,-0.09 -0.87,-0.41 -3.75,-3.07 -8.18,-2.36 -3.5,0.56 -6.06,-0.76 a 1.79,1.54 51.5 0 0 -0.93,-0.18 q -3.97,0.44 -7.91,-0.03 -1.31,-0.15 -3.06,0.11 -1.59,0.24 -3.16,0.05 -2.85,-0.33 -4.29,-0.15 -3.94,0.5 -7.91,0.74 a 1.03,0.76 -71 0 0 -0.69,0.48 l -0.45,0.74 q -0.62,-3.19 0.29,-6.03 0.64,-1.99 3.19,-4.84 13.13,-14.66 26.19,-29.38 -0.22,1.09 2.22,0.65 a 2.86,2.86 54.6 0 1 1.94,0.33 q 2.37,1.37 4.39,0.52 1.22,-0.52 1.72,-0.52 0.62,0.01 1.23,0.15 0.68,0.17 1.2,0.08 14.29,-2.45 21.34,-2.46 5.88,0 15.34,1.49 10.9,1.71 15.27,2.04 10.89,0.83 21.83,0.55 a 1.15,0.95 -18.5 0 1 0.85,0.33 l 0.72,0.81 a 0.16,0.15 33 0 0 0.26,-0.05 q 0.38,-1.13 0.37,0.58 -0.05,6.13 0.32,12.25 z"
         id="path87" /><path
         fill="#01dde3"
         d="m 381.5,610.21 4.9,4.69 a 1.23,1.18 23 0 1 0.37,0.86 l 0.27,20.24 0.15,52.69 q 0,0.79 -0.28,0.09 -0.19,-0.47 -0.16,-1.28 0.5,-14.1 0.19,-39.03 0,-0.3 -0.25,-0.09 -0.36,0.3 -0.33,-0.88 0.14,-6.5 0.14,-14.91 0,-3.4 -2.93,-1.68 -1.49,0.87 -2.63,3.49 -1.29,2.96 -1.9,3.87 -2.31,3.47 -5.39,6.27 -0.08,0.07 -0.98,1.19 -0.58,0.72 -1.61,0.82 a 1.08,0.93 10.9 0 0 -0.77,0.44 q -2.92,4.46 -6.23,7.57 -3.21,3.03 -5.58,5.44 -3.18,3.23 -5.62,5.34 -7.8,6.73 -10.3,9.47 -3.23,3.55 -7.1,10.32 -1.32,2.31 -3.23,5.04 -1.54,2.2 -3.29,5.02 -2.09,3.36 -5.05,6.8 -2.39,2.78 -3.84,5.29 -2.5,4.31 -3.36,5.66 -1.91,2.99 -3.13,5.88 -1.35,3.21 -2.76,5.99 -2.41,4.76 -3.05,9.94 -0.37,2.98 -3,3.79 -9.58,-4.35 -16,-12.75 4.99,-2.79 6.19,-8.04 0.54,-2.38 1.43,-3.68 2.41,-3.51 4.38,-5.57 0.36,-0.37 0.33,-0.66 a 0.94,0.16 83.3 0 1 0.04,-0.79 q 5.65,-7.15 12.15,-13.52 4.15,-4.07 7.24,-9 2.02,-3.21 4.86,-5.7 0.32,-0.29 0.52,-0.8 0.34,-0.89 1.3,-2.09 8.11,-10.18 9.5,-12.75 1.61,-2.99 6.87,-9.38 14.7,-17.85 18.25,-22.5 1.44,-1.87 2.69,-2.89 1.95,-1.59 2,-1.64 2.79,-2.68 5.67,-5.27 1.48,-1.33 2.93,-3.64 1.27,-2.02 2.91,-3.76 0.47,-0.49 1.49,-2.1 0.73,-1.15 2,-1.8 z"
         id="path89" /><path
         fill="#01fff5"
         d="m 387.96,621.5 v 78 q -0.66,1.86 -0.98,3.8 -0.43,2.6 -0.84,3.8 -5.89,17.18 -19.74,27.74 -7.98,6.09 -17.78,8.84 -13.64,3.84 -27.9,1.23 -3.79,-0.69 -8.16,-2.7 -3.92,-1.81 -7.81,-3.67 2.63,-0.81 3,-3.79 0.64,-5.18 3.05,-9.94 1.41,-2.78 2.76,-5.99 1.22,-2.89 3.13,-5.88 0.86,-1.35 3.36,-5.66 1.45,-2.51 3.84,-5.29 2.96,-3.44 5.05,-6.8 1.75,-2.82 3.29,-5.02 1.91,-2.73 3.23,-5.04 3.87,-6.77 7.1,-10.32 2.5,-2.74 10.3,-9.47 2.44,-2.11 5.62,-5.34 2.37,-2.41 5.58,-5.44 3.31,-3.11 6.23,-7.57 a 1.08,0.93 10.9 0 1 0.77,-0.44 q 1.03,-0.1 1.61,-0.82 0.9,-1.12 0.98,-1.19 3.08,-2.8 5.39,-6.27 0.61,-0.91 1.9,-3.87 1.14,-2.62 2.63,-3.49 2.93,-1.72 2.93,1.68 0,8.41 -0.14,14.91 -0.03,1.18 0.33,0.88 0.25,-0.21 0.25,0.09 0.31,24.93 -0.19,39.03 -0.03,0.81 0.16,1.28 0.28,0.7 0.28,-0.09 L 387.04,636 q 0.79,-8.14 0.46,-13.5 -0.06,-0.92 0.46,-1 z"
         id="path91" /><path
         fill="#862d8f"
         d="m 746.04,679 q -0.15,8.31 -1.5,16.5 -2.61,-3.83 -4.79,-5.25 -3.42,-2.23 -4.84,-3.69 a 1.64,1.56 -16.3 0 0 -0.85,-0.44 l -4.65,-0.89 a 0.87,0.83 -80.4 0 1 -0.66,-0.97 q 0.22,-1.53 -0.87,-2.27 -1,-0.69 -1.05,-0.73 -3.47,-3.03 -7.58,-5.1 a 0.86,0.85 12.8 0 1 -0.46,-0.72 l -0.08,-1.64 a 0.91,0.81 -80.3 0 0 -0.46,-0.74 l -7.14,-3.42 a 0.78,0.62 -45.4 0 0 -0.68,0.08 l -0.32,0.21 a 0.72,0.67 48 0 1 -0.81,-0.07 q -4.8,-3.97 -11.74,-6.67 -0.33,-0.13 -0.49,-0.04 a 0.52,0.15 -34.6 0 1 -0.43,0.14 q -5.55,-2.71 -10.45,-6.48 -4.51,-3.47 -9.87,-5.39 -9.61,-3.45 -19.58,-5.67 -0.94,-0.21 -0.19,0.43 l 1.32,1.13 q 0.49,0.41 -0.17,0.32 -2.22,-0.32 -3.89,-1.7 -2.14,-1.77 -2.49,-1.93 -1.55,-0.71 -3.2,-0.54 A 3.71,3.63 -33.4 0 1 646,643.05 q -6,-3.17 -13.64,-4.38 a 3.22,3.17 34.8 0 0 -2.03,0.35 q -2.06,1.14 -2.29,-2.27 v -8.25 l 0.45,-0.74 a 1.03,0.76 -71 0 1 0.69,-0.48 q 3.97,-0.24 7.91,-0.74 1.44,-0.18 4.29,0.15 1.57,0.19 3.16,-0.05 1.75,-0.26 3.06,-0.11 3.94,0.47 7.91,0.03 a 1.79,1.54 51.5 0 1 0.93,0.18 q 2.56,1.32 6.06,0.76 4.43,-0.71 8.18,2.36 0.39,0.32 0.87,0.41 5.43,1.02 9.41,4.82 a 0.65,0.58 -38.3 0 0 0.76,0.05 q 1.32,-0.83 2.15,0.85 a 1.47,1.24 85.1 0 0 0.65,0.65 q 3.34,1.47 6.63,3.05 2.45,1.18 6.74,2.79 4.4,1.66 7.05,3.58 7.53,5.48 15.42,10.42 0.29,0.18 0.3,-0.17 0.01,-0.47 0.38,-0.31 2.74,1.17 5.49,2.31 a 1.13,0.93 88.7 0 1 0.58,0.67 l 1.45,4.56 q 0.13,0.41 0.04,0.93 -0.13,0.68 0.43,1.05 0.29,0.2 0.99,0.24 1.94,0.11 3.37,1.39 a 0.41,0.35 33.4 0 0 0.61,-0.08 l 0.1,-0.25 a 0.26,0.23 -65 0 1 0.33,-0.14 q 2.27,1.11 3.11,3.54 a 0.52,0.34 -22.8 0 1 -0.34,0.5 l -0.24,0.11 a 0.35,0.28 67.5 0 0 -0.12,0.42 q 0.46,1.17 1.6,1.47 a 1.34,0.91 0.5 0 1 0.75,0.52 q 1.11,2 1.63,4.24 0.48,2.13 1.94,3.58 1.45,1.45 1.7,2.09 0.42,1.07 0.39,2.28 -0.01,0.12 0,0 0.08,-1.47 0.15,-5.93 0.02,-1.13 1.04,-0.5 z"
         id="path93" /><path
         fill="#962d7f"
         d="m 628.04,636.75 q 0.23,3.41 2.29,2.27 a 3.22,3.17 34.8 0 1 2.03,-0.35 q 7.64,1.21 13.64,4.38 a 3.71,3.63 -33.4 0 0 2.12,0.41 q 1.65,-0.17 3.2,0.54 0.35,0.16 2.49,1.93 1.67,1.38 3.89,1.7 0.66,0.09 0.17,-0.32 l -1.32,-1.13 q -0.75,-0.64 0.19,-0.43 9.97,2.22 19.58,5.67 5.36,1.92 9.87,5.39 4.9,3.77 10.45,6.48 a 0.52,0.15 -34.6 0 0 0.43,-0.14 q 0.16,-0.09 0.49,0.04 6.94,2.7 11.74,6.67 a 0.72,0.67 48 0 0 0.81,0.07 l 0.32,-0.21 a 0.78,0.62 -45.4 0 1 0.68,-0.08 l 7.14,3.42 a 0.91,0.81 -80.3 0 1 0.46,0.74 l 0.08,1.64 a 0.86,0.85 12.8 0 0 0.46,0.72 q 4.11,2.07 7.58,5.1 0.05,0.04 1.05,0.73 1.09,0.74 0.87,2.27 a 0.87,0.83 -80.4 0 0 0.66,0.97 l 4.65,0.89 a 1.64,1.56 -16.3 0 1 0.85,0.44 q 1.42,1.46 4.84,3.69 2.18,1.42 4.79,5.25 -1.92,13.54 -9.29,25.04 -1.44,0.52 -2.51,-0.23 -1.15,-0.8 -1.23,-0.84 -3.34,-1.66 -6.91,-2.67 -3.55,-1.01 -6.46,-2.32 -3.1,-1.41 -8.2,-3.42 -4.3,-1.69 -25.77,-12.59 -3.56,-1.8 -8.36,-3.53 -4.74,-1.71 -9.62,-5.13 -1.54,-1.07 -8.9,-2.88 -0.52,-0.13 -0.18,0.29 l 0.49,0.6 q 0.3,0.36 -0.15,0.27 -3.45,-0.68 -6.89,-1.38 -1.92,-0.38 -3.47,-1.46 -2.08,-1.44 -3.19,-1.7 -2.11,-0.49 -4.29,-0.45 -0.21,0 -4.2,-0.05 -3.08,-0.05 -5.99,1.46 a 0.48,0.48 63.9 0 1 -0.66,-0.23 q -0.71,-1.64 -0.5,0.97 0.15,1.9 -0.22,3.75 z"
         id="path95" /><path
         fill="#af306c"
         d="m 735.25,720.54 q -4.86,8.08 -12.21,13.96 -0.46,-0.08 -0.92,0.09 a 1.79,0.89 -33.8 0 1 -0.92,0.12 q -6.28,-1.31 -10.39,-3.02 -2.5,-1.05 -4.83,-1.45 -3.17,-0.54 -4.8,-1.19 -4.78,-1.9 -9.68,-3.43 -5.24,-1.63 -9.61,-3.55 -5.7,-2.5 -12.07,-4.94 -0.86,-0.32 -0.31,0.38 l 1.56,1.98 q 0.25,0.32 -0.12,0.24 -1.56,-0.34 -3.76,-1.67 -10.42,-6.28 -24.52,-11.19 -1.91,-0.66 -3.89,-0.78 -0.13,-0.01 -1.41,-0.21 -1.52,-0.24 -2.38,1.18 a 1.58,0.68 -12.3 0 1 -0.74,0.53 l -3.46,1.41 q -3.06,-9.74 -2.75,-20 0.37,-1.85 0.22,-3.75 -0.21,-2.61 0.5,-0.97 a 0.48,0.48 63.9 0 0 0.66,0.23 q 2.91,-1.51 5.99,-1.46 3.99,0.05 4.2,0.05 2.18,-0.04 4.29,0.45 1.11,0.26 3.19,1.7 1.55,1.08 3.47,1.46 3.44,0.7 6.89,1.38 0.45,0.09 0.15,-0.27 l -0.49,-0.6 q -0.34,-0.42 0.18,-0.29 7.36,1.81 8.9,2.88 4.88,3.42 9.62,5.13 4.8,1.73 8.36,3.53 21.47,10.9 25.77,12.59 5.1,2.01 8.2,3.42 2.91,1.31 6.46,2.32 3.57,1.01 6.91,2.67 0.08,0.04 1.23,0.84 1.07,0.75 2.51,0.23 z"
         id="path97" /><path
         fill="#59eaeb"
         d="m 387.96,699.5 q 0.07,5.06 -1.65,9.81 -2.98,8.25 -8.17,15.29 -10.11,13.7 -25.45,18.99 -9.31,3.2 -19.6,3.63 -15.57,0.64 -29.53,-7.03 -18.11,-9.96 -26.27,-29.44 2.28,0.54 2.4,2.68 a 0.56,0.56 1.2 0 0 0.5,0.52 q 1.54,0.15 1.58,1.8 0.01,0.58 0.19,0.94 2.54,5.17 6.79,9.1 6.42,8.4 16,12.75 3.89,1.86 7.81,3.67 4.37,2.01 8.16,2.7 14.26,2.61 27.9,-1.23 9.8,-2.75 17.78,-8.84 13.85,-10.56 19.74,-27.74 0.41,-1.2 0.84,-3.8 0.32,-1.94 0.98,-3.8 z"
         id="path99" /><path
         fill="#c83660"
         d="m 723.04,734.5 q -14.91,12 -33.3,12.99 -9.81,0.54 -19.71,-2.53 -20.84,-6.45 -34.09,-24.9 -2.46,-3.42 -5.15,-11.06 l 3.46,-1.41 a 1.58,0.68 -12.3 0 0 0.74,-0.53 q 0.86,-1.42 2.38,-1.18 1.28,0.2 1.41,0.21 1.98,0.12 3.89,0.78 14.1,4.91 24.52,11.19 2.2,1.33 3.76,1.67 0.37,0.08 0.12,-0.24 l -1.56,-1.98 q -0.55,-0.7 0.31,-0.38 6.37,2.44 12.07,4.94 4.37,1.92 9.61,3.55 4.9,1.53 9.68,3.43 1.63,0.65 4.8,1.19 2.33,0.4 4.83,1.45 4.11,1.71 10.39,3.02 a 1.79,0.89 -33.8 0 0 0.92,-0.12 q 0.46,-0.17 0.92,-0.09 z"
         id="path101" /></g></g></svg>
